<svg width="182" height="142" viewBox="0 0 182 142" fill="none" xmlns="http://www.w3.org/2000/svg">
<path d="M45.8912 19.0933C45.5459 19.4279 45.3872 19.9119 45.4659 20.3866L46.6512 26.9466C46.7512 27.5026 46.5165 28.0653 46.0512 28.3866C45.5952 28.7199 44.9885 28.7599 44.4912 28.4933L38.5858 25.4132C38.3805 25.3039 38.1525 25.2453 37.9192 25.2386H37.5578C37.4325 25.2573 37.3099 25.2972 37.1979 25.3586L31.2912 28.4533C30.9992 28.5999 30.6685 28.6519 30.3445 28.5999C29.5552 28.4506 29.0285 27.6986 29.1579 26.9053L30.3445 20.3453C30.4232 19.8666 30.2645 19.3799 29.9192 19.0399L25.1045 14.3733C24.7019 13.9826 24.5619 13.3959 24.7459 12.8666C24.9245 12.3386 25.3805 11.9533 25.9312 11.8666L32.5578 10.9053C33.0619 10.8533 33.5045 10.5466 33.7312 10.0933L36.6512 4.10659C36.7205 3.97325 36.8099 3.85059 36.9179 3.74659L37.0378 3.65325C37.1005 3.58392 37.1725 3.52659 37.2525 3.47992L37.3979 3.42659L37.6245 3.33325H38.1859C38.6872 3.38525 39.1285 3.68525 39.3592 4.13325L42.3179 10.0933C42.5312 10.5293 42.9459 10.8319 43.4245 10.9053L50.0512 11.8666C50.6112 11.9466 51.0792 12.3333 51.2645 12.8666C51.4392 13.4013 51.2885 13.9879 50.8779 14.3733L45.8912 19.0933Z" fill="#F6C13F"/>
<path d="M77.8912 19.0933C77.5459 19.4279 77.3872 19.9119 77.4659 20.3866L78.6512 26.9466C78.7512 27.5026 78.5165 28.0653 78.0512 28.3866C77.5952 28.7199 76.9885 28.7599 76.4912 28.4933L70.5858 25.4132C70.3805 25.3039 70.1525 25.2453 69.9192 25.2386H69.5578C69.4325 25.2573 69.3099 25.2972 69.1979 25.3586L63.2912 28.4533C62.9992 28.5999 62.6685 28.6519 62.3445 28.5999C61.5552 28.4506 61.0285 27.6986 61.1579 26.9053L62.3445 20.3453C62.4232 19.8666 62.2645 19.3799 61.9192 19.0399L57.1045 14.3733C56.7019 13.9826 56.5619 13.3959 56.7459 12.8666C56.9245 12.3386 57.3805 11.9533 57.9312 11.8666L64.5578 10.9053C65.0619 10.8533 65.5045 10.5466 65.7312 10.0933L68.6512 4.10659C68.7205 3.97325 68.8099 3.85059 68.9179 3.74659L69.0378 3.65325C69.1005 3.58392 69.1725 3.52659 69.2525 3.47992L69.3979 3.42659L69.6245 3.33325H70.1859C70.6872 3.38525 71.1285 3.68525 71.3592 4.13325L74.3179 10.0933C74.5312 10.5293 74.9459 10.8319 75.4245 10.9053L82.0512 11.8666C82.6112 11.9466 83.0792 12.3333 83.2645 12.8666C83.4392 13.4013 83.2885 13.9879 82.8779 14.3733L77.8912 19.0933Z" fill="#F6C13F"/>
<path d="M109.891 19.0933C109.546 19.4279 109.387 19.9119 109.466 20.3866L110.651 26.9466C110.751 27.5026 110.517 28.0653 110.051 28.3866C109.595 28.7199 108.989 28.7599 108.491 28.4933L102.586 25.4132C102.381 25.3039 102.153 25.2453 101.919 25.2386H101.558C101.433 25.2573 101.31 25.2972 101.198 25.3586L95.2912 28.4533C94.9992 28.5999 94.6685 28.6519 94.3445 28.5999C93.5552 28.4506 93.0285 27.6986 93.1579 26.9053L94.3445 20.3453C94.4232 19.8666 94.2645 19.3799 93.9192 19.0399L89.1045 14.3733C88.7019 13.9826 88.5619 13.3959 88.7459 12.8666C88.9245 12.3386 89.3805 11.9533 89.9312 11.8666L96.5578 10.9053C97.0619 10.8533 97.5045 10.5466 97.7312 10.0933L100.651 4.10659C100.721 3.97325 100.81 3.85059 100.918 3.74659L101.038 3.65325C101.101 3.58392 101.173 3.52659 101.253 3.47992L101.398 3.42659L101.625 3.33325H102.186C102.687 3.38525 103.129 3.68525 103.359 4.13325L106.318 10.0933C106.531 10.5293 106.946 10.8319 107.425 10.9053L114.051 11.8666C114.611 11.9466 115.079 12.3333 115.265 12.8666C115.439 13.4013 115.289 13.9879 114.878 14.3733L109.891 19.0933Z" fill="#F6C13F"/>
<path d="M141.891 19.0933C141.546 19.4279 141.387 19.9119 141.466 20.3866L142.651 26.9466C142.751 27.5026 142.517 28.0653 142.051 28.3866C141.595 28.7199 140.989 28.7599 140.491 28.4933L134.586 25.4132C134.381 25.3039 134.153 25.2453 133.919 25.2386H133.558C133.433 25.2573 133.31 25.2972 133.198 25.3586L127.291 28.4533C126.999 28.5999 126.669 28.6519 126.345 28.5999C125.555 28.4506 125.029 27.6986 125.158 26.9053L126.345 20.3453C126.423 19.8666 126.265 19.3799 125.919 19.0399L121.105 14.3733C120.702 13.9826 120.562 13.3959 120.746 12.8666C120.925 12.3386 121.381 11.9533 121.931 11.8666L128.558 10.9053C129.062 10.8533 129.505 10.5466 129.731 10.0933L132.651 4.10659C132.721 3.97325 132.81 3.85059 132.918 3.74659L133.038 3.65325C133.101 3.58392 133.173 3.52659 133.253 3.47992L133.398 3.42659L133.625 3.33325H134.186C134.687 3.38525 135.129 3.68525 135.359 4.13325L138.318 10.0933C138.531 10.5293 138.946 10.8319 139.425 10.9053L146.051 11.8666C146.611 11.9466 147.079 12.3333 147.265 12.8666C147.439 13.4013 147.289 13.9879 146.878 14.3733L141.891 19.0933Z" fill="#F6C13F"/>
<path d="M173.891 19.0933C173.546 19.4279 173.387 19.9119 173.466 20.3866L174.651 26.9466C174.751 27.5026 174.517 28.0653 174.051 28.3866C173.595 28.7199 172.989 28.7599 172.491 28.4933L166.586 25.4132C166.381 25.3039 166.153 25.2453 165.919 25.2386H165.558C165.433 25.2573 165.31 25.2972 165.198 25.3586L159.291 28.4533C158.999 28.5999 158.669 28.6519 158.345 28.5999C157.555 28.4506 157.029 27.6986 157.158 26.9053L158.345 20.3453C158.423 19.8666 158.265 19.3799 157.919 19.0399L153.105 14.3733C152.702 13.9826 152.562 13.3959 152.746 12.8666C152.925 12.3386 153.381 11.9533 153.931 11.8666L160.558 10.9053C161.062 10.8533 161.505 10.5466 161.731 10.0933L164.651 4.10659C164.721 3.97325 164.81 3.85059 164.918 3.74659L165.038 3.65325C165.101 3.58392 165.173 3.52659 165.253 3.47992L165.398 3.42659L165.625 3.33325H166.186C166.687 3.38525 167.129 3.68525 167.359 4.13325L170.318 10.0933C170.531 10.5293 170.946 10.8319 171.425 10.9053L178.051 11.8666C178.611 11.9466 179.079 12.3333 179.265 12.8666C179.439 13.4013 179.289 13.9879 178.878 14.3733L173.891 19.0933Z" fill="#F6C13F"/>
<path d="M15.8692 101.728C13.3492 101.728 11.0719 101.121 9.03722 99.908C7.00255 98.676 5.38788 97.0427 4.19322 95.008C3.01722 92.9733 2.42922 90.7427 2.42922 88.316H9.26122C9.26122 89.5293 9.55988 90.64 10.1572 91.648C10.7545 92.6373 11.5479 93.4307 12.5372 94.028C13.5452 94.6067 14.6559 94.896 15.8692 94.896C17.0825 94.896 18.1839 94.6067 19.1732 94.028C20.1625 93.4307 20.9559 92.6373 21.5532 91.648C22.1505 90.64 22.4492 89.5293 22.4492 88.316C22.4492 87.1027 22.1879 85.992 21.6652 84.984C21.1612 83.9573 20.3305 83.1453 19.1732 82.548C18.0346 81.932 16.5226 81.624 14.6372 81.624H4.55722L8.70122 61.8H27.9652V68.632H14.2452L12.9852 74.792L15.7572 74.82C18.4079 74.9133 20.7505 75.5573 22.7852 76.752C24.8199 77.9467 26.4065 79.552 27.5452 81.568C28.7026 83.5653 29.2812 85.8147 29.2812 88.316C29.2812 90.1453 28.9359 91.872 28.2452 93.496C27.5545 95.12 26.5932 96.548 25.3612 97.78C24.1292 99.012 22.7012 99.9827 21.0772 100.692C19.4719 101.383 17.7359 101.728 15.8692 101.728ZM71.7826 61.8H79.8466L66.3786 83.332V101H59.5466V83.332L46.0786 61.8H54.1426L62.9626 75.884L71.7826 61.8ZM90.4105 101.728C87.8345 101.728 85.4825 101.065 83.3545 99.74C81.2451 98.4147 79.5558 96.632 78.2865 94.392C77.0358 92.152 76.4105 89.6787 76.4105 86.972C76.4105 84.9373 76.7745 83.0333 77.5025 81.26C78.2305 79.468 79.2291 77.9 80.4985 76.556C81.7865 75.1933 83.2798 74.1293 84.9785 73.364C86.6771 72.5987 88.4878 72.216 90.4105 72.216C92.5945 72.216 94.5918 72.6827 96.4025 73.616C98.2318 74.5307 99.7811 75.7907 101.05 77.396C102.32 79.0013 103.244 80.8307 103.822 82.884C104.401 84.9373 104.532 87.084 104.214 89.324H83.7465C84.0078 90.3693 84.4371 91.312 85.0345 92.152C85.6318 92.9733 86.3878 93.636 87.3025 94.14C88.2171 94.6253 89.2531 94.8773 90.4105 94.896C91.6051 94.9147 92.6878 94.6347 93.6585 94.056C94.6478 93.4587 95.4691 92.656 96.1225 91.648L103.094 93.272C101.956 95.7547 100.257 97.7893 97.9985 99.376C95.7398 100.944 93.2105 101.728 90.4105 101.728ZM83.5225 84.2H97.2985C97.0931 83.08 96.6545 82.072 95.9825 81.176C95.3291 80.2613 94.5171 79.5333 93.5465 78.992C92.5758 78.4507 91.5305 78.18 90.4105 78.18C89.2905 78.18 88.2545 78.4507 87.3025 78.992C86.3505 79.5147 85.5385 80.2333 84.8665 81.148C84.2131 82.044 83.7651 83.0613 83.5225 84.2ZM129.152 73H135.984V101H129.152L128.844 97.528C128.078 98.7787 127.061 99.796 125.792 100.58C124.541 101.345 123.057 101.728 121.34 101.728C119.268 101.728 117.326 101.336 115.516 100.552C113.705 99.768 112.109 98.6853 110.728 97.304C109.365 95.9227 108.292 94.3267 107.508 92.516C106.742 90.7053 106.36 88.764 106.36 86.692C106.36 84.6947 106.724 82.8187 107.452 81.064C108.198 79.3093 109.234 77.7693 110.56 76.444C111.885 75.1187 113.416 74.0827 115.152 73.336C116.888 72.5893 118.754 72.216 120.752 72.216C122.6 72.216 124.252 72.6267 125.708 73.448C127.182 74.2693 128.433 75.3147 129.46 76.584L129.152 73ZM121.172 95.148C122.628 95.148 123.916 94.784 125.036 94.056C126.156 93.328 127.033 92.348 127.668 91.116C128.302 89.8653 128.62 88.4933 128.62 87C128.62 85.488 128.302 84.116 127.668 82.884C127.033 81.6333 126.146 80.644 125.008 79.916C123.888 79.188 122.609 78.824 121.172 78.824C119.734 78.824 118.418 79.1973 117.224 79.944C116.048 80.672 115.105 81.652 114.396 82.884C113.705 84.116 113.36 85.488 113.36 87C113.36 88.512 113.714 89.884 114.424 91.116C115.133 92.348 116.076 93.328 117.252 94.056C118.446 94.784 119.753 95.148 121.172 95.148ZM140.751 101L140.723 73H147.555L147.583 75.492C148.535 74.484 149.674 73.6907 150.999 73.112C152.324 72.5147 153.752 72.216 155.283 72.216C156.31 72.216 157.336 72.3653 158.363 72.664L155.675 79.552C154.966 79.272 154.256 79.132 153.547 79.132C152.446 79.132 151.438 79.4027 150.523 79.944C149.627 80.4667 148.908 81.1853 148.367 82.1C147.844 82.996 147.583 83.9947 147.583 85.096V101H140.751ZM168.815 101.504C167.359 101.411 165.95 101.121 164.587 100.636C163.243 100.132 162.048 99.4507 161.003 98.592C159.958 97.7333 159.155 96.7067 158.595 95.512L164.363 93.048C164.587 93.4213 164.951 93.8227 165.455 94.252C165.959 94.6627 166.556 95.008 167.247 95.288C167.956 95.568 168.731 95.708 169.571 95.708C170.28 95.708 170.952 95.6147 171.587 95.428C172.24 95.2227 172.763 94.9147 173.155 94.504C173.566 94.0933 173.771 93.5613 173.771 92.908C173.771 92.2173 173.528 91.6853 173.043 91.312C172.576 90.92 171.979 90.6307 171.251 90.444C170.542 90.2387 169.851 90.052 169.179 89.884C167.406 89.5293 165.754 88.9787 164.223 88.232C162.711 87.4853 161.488 86.524 160.555 85.348C159.64 84.1533 159.183 82.716 159.183 81.036C159.183 79.188 159.668 77.592 160.639 76.248C161.628 74.904 162.907 73.868 164.475 73.14C166.062 72.412 167.77 72.048 169.599 72.048C171.82 72.048 173.855 72.5147 175.703 73.448C177.57 74.3627 179.044 75.66 180.127 77.34L174.723 80.532C174.462 80.084 174.098 79.6733 173.631 79.3C173.164 78.908 172.632 78.5907 172.035 78.348C171.438 78.0867 170.812 77.9373 170.159 77.9C169.319 77.8627 168.554 77.9373 167.863 78.124C167.172 78.3107 166.612 78.628 166.183 79.076C165.772 79.524 165.567 80.1213 165.567 80.868C165.567 81.5773 165.847 82.1093 166.407 82.464C166.967 82.8 167.639 83.0613 168.423 83.248C169.226 83.4347 169.991 83.64 170.719 83.864C172.362 84.4053 173.902 85.068 175.339 85.852C176.795 86.636 177.962 87.5973 178.839 88.736C179.716 89.8747 180.136 91.2373 180.099 92.824C180.099 94.6347 179.558 96.2213 178.475 97.584C177.392 98.928 175.992 99.9547 174.275 100.664C172.576 101.373 170.756 101.653 168.815 101.504Z" fill="#171717"/>
<path d="M65.717 136V117.091H77.1289V119.122H68.0067V125.511H76.538V127.543H68.0067V133.969H77.2766V136H65.717ZM82.1956 121.818L85.5933 127.616L88.991 121.818H91.5024L86.9228 128.909L91.5024 136H88.991L85.5933 130.497L82.1956 136H79.6842L84.1899 128.909L79.6842 121.818H82.1956ZM94.2216 141.318V121.818H96.3267V124.071H96.5852C96.7453 123.825 96.9668 123.511 97.25 123.129C97.5393 122.741 97.9517 122.397 98.4872 122.095C99.0289 121.787 99.7614 121.634 100.685 121.634C101.879 121.634 102.931 121.932 103.842 122.529C104.753 123.126 105.464 123.973 105.975 125.068C106.486 126.164 106.741 127.456 106.741 128.946C106.741 130.448 106.486 131.75 105.975 132.852C105.464 133.947 104.756 134.797 103.852 135.4C102.947 135.997 101.903 136.295 100.722 136.295C99.8106 136.295 99.0812 136.145 98.5334 135.843C97.9856 135.535 97.5639 135.187 97.2685 134.8C96.973 134.406 96.7453 134.08 96.5852 133.821H96.4006V141.318H94.2216ZM96.3636 128.909C96.3636 129.98 96.5206 130.925 96.8345 131.744C97.1484 132.556 97.607 133.193 98.2102 133.655C98.8134 134.11 99.5521 134.338 100.426 134.338C101.337 134.338 102.097 134.098 102.707 133.618C103.322 133.132 103.784 132.479 104.092 131.661C104.406 130.836 104.562 129.919 104.562 128.909C104.562 127.912 104.409 127.013 104.101 126.213C103.799 125.407 103.341 124.77 102.725 124.302C102.116 123.828 101.349 123.591 100.426 123.591C99.5398 123.591 98.795 123.816 98.1918 124.265C97.5885 124.708 97.133 125.33 96.8253 126.13C96.5175 126.924 96.3636 127.85 96.3636 128.909ZM115.621 136.295C114.255 136.295 113.076 135.994 112.085 135.391C111.1 134.781 110.34 133.932 109.805 132.842C109.275 131.747 109.011 130.473 109.011 129.02C109.011 127.567 109.275 126.287 109.805 125.179C110.34 124.065 111.085 123.197 112.039 122.575C112.999 121.947 114.119 121.634 115.4 121.634C116.138 121.634 116.868 121.757 117.588 122.003C118.308 122.249 118.964 122.649 119.555 123.203C120.146 123.751 120.616 124.477 120.967 125.382C121.318 126.287 121.494 127.401 121.494 128.724V129.648H110.562V127.764H119.278C119.278 126.964 119.118 126.25 118.797 125.622C118.484 124.994 118.034 124.499 117.449 124.136C116.871 123.772 116.188 123.591 115.4 123.591C114.532 123.591 113.781 123.806 113.147 124.237C112.519 124.662 112.036 125.216 111.697 125.899C111.359 126.582 111.19 127.315 111.19 128.097V129.352C111.19 130.423 111.374 131.331 111.744 132.076C112.119 132.815 112.639 133.378 113.304 133.766C113.969 134.147 114.741 134.338 115.621 134.338C116.194 134.338 116.711 134.258 117.172 134.098C117.64 133.932 118.043 133.686 118.382 133.359C118.721 133.027 118.982 132.615 119.167 132.122L121.272 132.713C121.05 133.427 120.678 134.055 120.155 134.597C119.632 135.132 118.985 135.551 118.216 135.852C117.446 136.148 116.582 136.295 115.621 136.295ZM124.418 136V121.818H126.523V123.96H126.671C126.93 123.259 127.397 122.689 128.074 122.252C128.751 121.815 129.515 121.597 130.364 121.597C130.524 121.597 130.724 121.6 130.964 121.606C131.204 121.612 131.386 121.621 131.509 121.634V123.849C131.435 123.831 131.266 123.803 131.001 123.766C130.743 123.723 130.469 123.702 130.18 123.702C129.49 123.702 128.875 123.846 128.333 124.136C127.797 124.419 127.373 124.813 127.059 125.317C126.751 125.816 126.597 126.385 126.597 127.026V136H124.418ZM133.702 136V121.818H135.881V136H133.702ZM134.81 119.455C134.385 119.455 134.019 119.31 133.711 119.021C133.41 118.731 133.259 118.384 133.259 117.977C133.259 117.571 133.41 117.223 133.711 116.934C134.019 116.645 134.385 116.5 134.81 116.5C135.235 116.5 135.598 116.645 135.899 116.934C136.207 117.223 136.361 117.571 136.361 117.977C136.361 118.384 136.207 118.731 135.899 119.021C135.598 119.31 135.235 119.455 134.81 119.455ZM141.661 127.469V136H139.482V121.818H141.587V124.034H141.772C142.104 123.314 142.609 122.735 143.286 122.298C143.963 121.855 144.837 121.634 145.908 121.634C146.868 121.634 147.708 121.83 148.429 122.224C149.149 122.612 149.709 123.203 150.109 123.997C150.509 124.785 150.709 125.782 150.709 126.989V136H148.53V127.136C148.53 126.022 148.241 125.154 147.662 124.533C147.084 123.905 146.29 123.591 145.28 123.591C144.585 123.591 143.963 123.742 143.415 124.043C142.873 124.345 142.446 124.785 142.132 125.364C141.818 125.942 141.661 126.644 141.661 127.469ZM160.062 136.295C158.733 136.295 157.588 135.982 156.628 135.354C155.667 134.726 154.929 133.861 154.412 132.759C153.895 131.657 153.636 130.399 153.636 128.983C153.636 127.543 153.901 126.272 154.43 125.17C154.966 124.062 155.71 123.197 156.665 122.575C157.625 121.947 158.745 121.634 160.025 121.634C161.022 121.634 161.921 121.818 162.721 122.188C163.522 122.557 164.177 123.074 164.688 123.739C165.199 124.403 165.516 125.179 165.639 126.065H163.46C163.294 125.419 162.924 124.847 162.352 124.348C161.786 123.843 161.022 123.591 160.062 123.591C159.213 123.591 158.468 123.812 157.828 124.256C157.194 124.693 156.698 125.311 156.341 126.112C155.991 126.906 155.815 127.838 155.815 128.909C155.815 130.005 155.987 130.959 156.332 131.771C156.683 132.584 157.175 133.215 157.809 133.664C158.45 134.113 159.201 134.338 160.062 134.338C160.629 134.338 161.143 134.24 161.604 134.043C162.066 133.846 162.457 133.562 162.777 133.193C163.097 132.824 163.325 132.381 163.46 131.864H165.639C165.516 132.701 165.211 133.455 164.725 134.126C164.245 134.79 163.608 135.32 162.814 135.714C162.026 136.102 161.109 136.295 160.062 136.295ZM174.38 136.295C173.014 136.295 171.835 135.994 170.844 135.391C169.859 134.781 169.099 133.932 168.564 132.842C168.034 131.747 167.77 130.473 167.77 129.02C167.77 127.567 168.034 126.287 168.564 125.179C169.099 124.065 169.844 123.197 170.798 122.575C171.758 121.947 172.878 121.634 174.159 121.634C174.897 121.634 175.627 121.757 176.347 122.003C177.067 122.249 177.723 122.649 178.314 123.203C178.904 123.751 179.375 124.477 179.726 125.382C180.077 126.287 180.253 127.401 180.253 128.724V129.648H169.321V127.764H178.037C178.037 126.964 177.877 126.25 177.556 125.622C177.243 124.994 176.793 124.499 176.208 124.136C175.63 123.772 174.947 123.591 174.159 123.591C173.291 123.591 172.54 123.806 171.906 124.237C171.278 124.662 170.795 125.216 170.456 125.899C170.118 126.582 169.949 127.315 169.949 128.097V129.352C169.949 130.423 170.133 131.331 170.503 132.076C170.878 132.815 171.398 133.378 172.063 133.766C172.728 134.147 173.5 134.338 174.38 134.338C174.953 134.338 175.47 134.258 175.931 134.098C176.399 133.932 176.802 133.686 177.141 133.359C177.48 133.027 177.741 132.615 177.926 132.122L180.031 132.713C179.809 133.427 179.437 134.055 178.914 134.597C178.391 135.132 177.744 135.551 176.975 135.852C176.205 136.148 175.341 136.295 174.38 136.295Z" fill="#171717"/>
</svg>
