<svg width="432" height="127" viewBox="0 0 432 127" fill="none" xmlns="http://www.w3.org/2000/svg">
<path d="M12.135 17.445H5.1C5.22 10.44 6.6 9.28496 10.905 6.73496C11.4 6.43496 11.565 5.80496 11.265 5.29496C10.98 4.79996 10.335 4.63496 9.84 4.93496C4.77 7.93496 3 9.76496 3 18.48V26.565C3 29.13 5.085 31.2 7.635 31.2H12.135C14.775 31.2 16.77 29.205 16.77 26.565V22.065C16.77 19.44 14.775 17.445 12.135 17.445Z" fill="#344054"/>
<path d="M28.365 17.445H21.33C21.45 10.44 22.83 9.28496 27.135 6.73496C27.63 6.43496 27.795 5.80496 27.495 5.29496C27.195 4.79996 26.565 4.63496 26.055 4.93496C20.985 7.93496 19.215 9.76496 19.215 18.495V26.58C19.215 29.145 21.3 31.215 23.85 31.215H28.35C30.99 31.215 32.985 29.22 32.985 26.58V22.08C33 19.44 31.005 17.445 28.365 17.445Z" fill="#344054"/>
<path d="M8.88 99C7.09333 98.7867 5.68 98.2 4.64 97.24C3.62667 96.28 3.12 94.8667 3.12 93V85.04C3.12 79.7867 5.96 77.16 11.64 77.16C17.32 77.16 20.16 79.8533 20.16 85.24V90.2L25.84 94.56C26.5067 95.0667 27.16 95.32 27.8 95.32C28.4933 95.32 28.84 94.7867 28.84 93.72V86.8C28.84 82.4 26.9467 80.08 23.16 79.84V77.16H33.36C37.6267 77.16 39.76 79.2667 39.76 83.48V99H36.28V83.36C36.28 81.2533 35.3067 80.2 33.36 80.2H29C31.2133 80.84 32.32 82.8267 32.32 86.16V94.04C32.32 97.3467 31.12 99 28.72 99C27.8667 99 27.0133 98.8133 26.16 98.44C25.3333 98.0667 24.4533 97.52 23.52 96.8L20.16 94.16C20.16 95.6533 19.72 96.84 18.84 97.72C17.9867 98.5733 16.8133 99 15.32 99C13.8533 99 12.7067 98.5867 11.88 97.76C11.0533 96.9067 10.64 95.7467 10.64 94.28C10.64 92.84 11.0533 91.6933 11.88 90.84C12.7067 89.9867 13.8533 89.56 15.32 89.56C15.7467 89.56 16.2 89.6 16.68 89.68V85.12C16.68 81.84 15 80.2 11.64 80.2C8.28 80.2 6.6 81.8 6.6 85V92.84C6.6 94.8133 7.6 95.96 9.6 96.28L8.88 99ZM15.16 96.36C16.1733 96.36 16.68 95.6933 16.68 94.36V92.52C16.4933 92.4667 16.2933 92.4267 16.08 92.4C15.8933 92.3467 15.72 92.32 15.56 92.32C14.3067 92.32 13.68 92.9867 13.68 94.32V94.52C13.68 95.7467 14.1733 96.36 15.16 96.36ZM59.5588 99.04C59.2654 99.04 58.9454 99 58.5988 98.92C58.2788 98.84 57.9321 98.7333 57.5588 98.6L48.7588 95V93.88C50.4654 92.3867 51.7588 90.8667 52.6388 89.32C53.5454 87.7733 53.9988 86.2133 53.9988 84.64V84.32C53.9988 81.36 53.2654 79.88 51.7988 79.88H46.7988L49.3588 83.4H45.5588L42.0788 78.36L42.7588 77.16H51.9988C55.7588 77.16 57.6388 79.2 57.6388 83.28C57.6388 87.3067 56.1988 90.6933 53.3188 93.44L58.5588 95.6C58.6388 95.6267 58.7321 95.6533 58.8388 95.68C58.9454 95.68 59.0254 95.68 59.0788 95.68C59.6121 95.68 59.8788 95.3067 59.8788 94.56V84.68C59.8788 79.6667 62.5321 77.16 67.8388 77.16C73.1188 77.16 75.7588 79.5867 75.7588 84.44V99H72.2788V84.4C72.2788 81.6 70.7988 80.2 67.8388 80.2C64.8521 80.2 63.3588 81.64 63.3588 84.52V94.84C63.3588 96.2267 63.0388 97.28 62.3988 98C61.7588 98.6933 60.8121 99.04 59.5588 99.04ZM86.0003 99C84.2136 98.7867 82.8003 98.2 81.7603 97.24C80.747 96.28 80.2403 94.8667 80.2403 93V83.48C80.2403 79.2667 82.3736 77.16 86.6403 77.16C90.8536 77.16 92.9603 79.2 92.9603 83.28V88.72H96.9203V86C96.9203 80.1067 99.8937 77.16 105.84 77.16C109.307 77.16 111.76 78.1467 113.2 80.12C114.294 78.1467 115.907 77.16 118.04 77.16C122.014 77.16 124 79.2 124 83.28V99H120.52V83.24C120.52 81.2133 119.56 80.2 117.64 80.2C115.694 80.2 114.72 81.2533 114.72 83.36V99H111.28V85.76C111.28 82.0533 109.467 80.2 105.84 80.2C102.214 80.2 100.4 82.0933 100.4 85.88V88.72C102.214 88.7467 103.667 89.2667 104.76 90.28C105.88 91.2933 106.44 92.6267 106.44 94.28C106.44 95.32 106.24 96.2 105.84 96.92C105.467 97.6133 104.934 98.1333 104.24 98.48C103.547 98.8267 102.72 99 101.76 99C100.214 99 99.0136 98.6133 98.1603 97.84C97.3337 97.0667 96.9203 95.9067 96.9203 94.36V91.72H92.9603V99H89.5203V83.24C89.5203 81.2133 88.5603 80.2 86.6403 80.2C84.6936 80.2 83.7203 81.2533 83.7203 83.36V92.84C83.7203 94.8133 84.7203 95.96 86.7203 96.28L86.0003 99ZM101.92 96.16C102.507 96.16 102.894 96 103.08 95.68C103.294 95.3333 103.4 94.88 103.4 94.32C103.4 93.4667 103.12 92.8267 102.56 92.4C102.027 91.9467 101.307 91.72 100.4 91.72V94.36C100.4 95.56 100.907 96.16 101.92 96.16ZM134.228 99C132.442 98.7867 131.028 98.2 129.988 97.24C128.975 96.28 128.468 94.8667 128.468 93V83.48C128.468 79.2667 130.602 77.16 134.868 77.16C139.082 77.16 141.188 79.2 141.188 83.28V88.72H145.148V86.16C145.148 83.2267 145.895 81 147.388 79.48C148.882 77.9333 151.108 77.16 154.068 77.16C159.988 77.16 162.948 80.04 162.948 85.8V99H159.508V85.76C159.508 82.0533 157.695 80.2 154.068 80.2C150.442 80.2 148.628 82.0933 148.628 85.88V88.72C150.442 88.7467 151.895 89.2667 152.988 90.28C154.108 91.2933 154.668 92.6267 154.668 94.28C154.668 95.32 154.468 96.2 154.068 96.92C153.695 97.6133 153.162 98.1333 152.468 98.48C151.775 98.8267 150.948 99 149.988 99C148.442 99 147.242 98.6267 146.388 97.88C145.562 97.1067 145.148 95.9467 145.148 94.4V91.72H141.188V99H137.748V83.24C137.748 81.2133 136.788 80.2 134.868 80.2C132.922 80.2 131.948 81.2533 131.948 83.36V92.84C131.948 94.8133 132.948 95.96 134.948 96.28L134.228 99ZM150.148 96.16C150.735 96.16 151.122 96 151.308 95.68C151.522 95.3333 151.628 94.88 151.628 94.32C151.628 93.4667 151.348 92.8267 150.788 92.4C150.255 91.9467 149.535 91.72 148.628 91.72V94.36C148.628 95.56 149.135 96.16 150.148 96.16ZM183.359 99.08C182.559 99.08 181.719 98.88 180.839 98.48C179.959 98.0533 179.012 97.5067 177.999 96.84C176.799 96.04 175.799 95.44 174.999 95.04C174.199 94.64 173.599 94.44 173.199 94.44C171.812 94.44 170.639 95.9333 169.679 98.92L166.879 97.32C168.559 92.9733 170.505 90.8 172.719 90.8C173.652 90.8 174.532 91.0267 175.359 91.48C176.185 91.9333 177.279 92.6267 178.639 93.56C180.799 95.0533 182.119 95.8 182.599 95.8C183.532 95.8 183.999 95.08 183.999 93.64V90.2H176.119L175.519 88.92L177.479 83.4H180.759L179.399 87.32H183.999V83.48C183.999 79.2667 185.932 77.16 189.799 77.16C193.639 77.16 195.559 79.2 195.559 83.28V99H192.079V92.96C192.079 91.12 190.572 90.2 187.559 90.2H187.479V93.64C187.479 97.2667 186.172 99.08 183.559 99.08H183.359ZM192.079 89.08V83.24C192.079 81.2133 191.319 80.2 189.799 80.2C188.252 80.2 187.479 81.2533 187.479 83.36V87.32H187.879C189.825 87.32 191.225 87.9067 192.079 89.08ZM205.802 99C204.015 98.7867 202.602 98.2 201.562 97.24C200.549 96.28 200.042 94.8667 200.042 93V83.48C200.042 79.2667 202.175 77.16 206.442 77.16C210.655 77.16 212.762 79.2 212.762 83.28V93.68C212.762 94.48 212.949 95.0933 213.322 95.52C213.722 95.92 214.282 96.12 215.002 96.12C216.469 96.12 217.202 95.3067 217.202 93.68V90.48H220.682V93.64C220.682 94.44 220.869 95.0533 221.242 95.48C221.615 95.9067 222.162 96.12 222.882 96.12C224.349 96.12 225.082 95.3067 225.082 93.68V83.48C225.082 79.2667 227.215 77.16 231.482 77.16C235.695 77.16 237.802 79.2 237.802 83.28V99H234.362V83.24C234.362 81.2133 233.402 80.2 231.482 80.2C229.535 80.2 228.562 81.2533 228.562 83.36V92.76C228.562 94.84 228.069 96.4 227.082 97.44C226.122 98.48 224.722 99 222.882 99C221.042 99 219.722 98.16 218.922 96.48C218.122 98.16 216.815 99 215.002 99C213.162 99 211.749 98.48 210.762 97.44C209.802 96.4 209.322 94.84 209.322 92.76V83.24C209.322 81.2133 208.362 80.2 206.442 80.2C204.495 80.2 203.522 81.2533 203.522 83.36V92.84C203.522 94.8133 204.522 95.96 206.522 96.28L205.802 99ZM248.053 99C246.267 98.7867 244.853 98.2 243.813 97.24C242.8 96.28 242.293 94.8667 242.293 93V83.48C242.293 79.2667 244.427 77.16 248.693 77.16C252.907 77.16 255.013 79.2 255.013 83.28V88.72H258.973V86.16C258.973 83.2267 259.72 81 261.213 79.48C262.707 77.9333 264.933 77.16 267.893 77.16C273.813 77.16 276.773 80.04 276.773 85.8V99H273.333V85.76C273.333 82.0533 271.52 80.2 267.893 80.2C264.267 80.2 262.453 82.0933 262.453 85.88V88.72C264.267 88.7467 265.72 89.2667 266.813 90.28C267.933 91.2933 268.493 92.6267 268.493 94.28C268.493 95.32 268.293 96.2 267.893 96.92C267.52 97.6133 266.987 98.1333 266.293 98.48C265.6 98.8267 264.773 99 263.813 99C262.267 99 261.067 98.6267 260.213 97.88C259.387 97.1067 258.973 95.9467 258.973 94.4V91.72H255.013V99H251.573V83.24C251.573 81.2133 250.613 80.2 248.693 80.2C246.747 80.2 245.773 81.2533 245.773 83.36V92.84C245.773 94.8133 246.773 95.96 248.773 96.28L248.053 99ZM263.973 96.16C264.56 96.16 264.947 96 265.133 95.68C265.347 95.3333 265.453 94.88 265.453 94.32C265.453 93.4667 265.173 92.8267 264.613 92.4C264.08 91.9467 263.36 91.72 262.453 91.72V94.36C262.453 95.56 262.96 96.16 263.973 96.16ZM292.304 99C289.93 99 288.744 97.3467 288.744 94.04V86.16C288.744 82.8267 289.837 80.84 292.024 80.2H287.664C285.717 80.2 284.744 81.2533 284.744 83.36V92.84C284.744 94.8133 285.744 95.96 287.744 96.28L287.024 99C285.237 98.7867 283.824 98.2 282.784 97.24C281.77 96.28 281.264 94.8667 281.264 93V83.48C281.264 79.2667 283.397 77.16 287.664 77.16H297.864V79.84C294.104 80.08 292.224 82.4 292.224 86.8V93.72C292.224 94.7867 292.557 95.32 293.224 95.32C293.57 95.32 293.904 95.2533 294.224 95.12C294.544 94.9867 294.864 94.8 295.184 94.56L300.864 90.2V86C300.864 80.1067 303.85 77.16 309.824 77.16C315.744 77.16 318.704 80.04 318.704 85.8V99H315.224V85.76C315.224 82.0533 313.424 80.2 309.824 80.2C306.17 80.2 304.344 82.0933 304.344 85.88V89.68C304.824 89.6 305.277 89.56 305.704 89.56C307.224 89.56 308.384 90 309.184 90.88C309.984 91.7333 310.384 92.8667 310.384 94.28C310.384 95.8533 309.957 97.04 309.104 97.84C308.277 98.6133 307.144 99 305.704 99C304.157 99 302.957 98.56 302.104 97.68C301.277 96.7733 300.864 95.6 300.864 94.16L297.584 96.76C296.677 97.5067 295.784 98.0667 294.904 98.44C294.024 98.8133 293.157 99 292.304 99ZM305.864 96.36C306.424 96.36 306.81 96.1867 307.024 95.84C307.237 95.4667 307.344 94.96 307.344 94.32C307.344 92.9867 306.73 92.32 305.504 92.32C305.317 92.32 305.13 92.3467 304.944 92.4C304.757 92.4267 304.557 92.4667 304.344 92.52V94.36C304.344 95.6933 304.85 96.36 305.864 96.36ZM307 73.92L305.64 71.92L319.6 62.36L321 64.48L307 73.92ZM303 74.24L299 73.52C297.427 73.2267 296.133 72.68 295.12 71.88C294.08 71.08 293.56 70.0667 293.56 68.84C293.56 67.32 294.067 66.1867 295.08 65.44C296.093 64.6667 297.32 64.28 298.76 64.28C300.52 64.28 301.867 64.7733 302.8 65.76C303.733 66.72 304.2 68.0667 304.2 69.8V73.48L303 74.24ZM301.04 71.2V69.56C301.04 68.6533 300.8 67.9867 300.32 67.56C299.84 67.1067 299.253 66.88 298.56 66.88C298.053 66.88 297.6 67.0267 297.2 67.32C296.8 67.5867 296.6 67.9867 296.6 68.52C296.6 69.2667 296.84 69.8 297.32 70.12C297.773 70.44 298.32 70.6667 298.96 70.8L301.04 71.2ZM330.683 99V84C330.683 81.4667 329.723 80.2 327.803 80.2C325.883 80.2 324.923 81.2533 324.923 83.36C324.923 85.44 325.843 86.7467 327.683 87.28L327.323 89.64C326.123 89.5867 325.056 89.2667 324.123 88.68C323.189 88.0667 322.456 87.2933 321.923 86.36C321.416 85.4267 321.163 84.4667 321.163 83.48C321.163 81.3733 321.736 79.8 322.883 78.76C324.056 77.6933 325.696 77.16 327.803 77.16C329.856 77.16 331.416 78.16 332.483 80.16C333.576 78.16 335.309 77.16 337.683 77.16C340.216 77.16 341.976 78.12 342.963 80.04C344.003 78.12 345.709 77.16 348.083 77.16C352.723 77.16 355.043 79.4533 355.043 84.04V99H351.563V84C351.563 81.4667 350.403 80.2 348.083 80.2C345.763 80.2 344.603 81.5067 344.603 84.12V99H341.123V84C341.123 81.4667 339.976 80.2 337.683 80.2C335.336 80.2 334.163 81.5067 334.163 84.12V99H330.683ZM365.302 99C363.515 98.7867 362.102 98.2 361.062 97.24C360.049 96.28 359.542 94.8667 359.542 93V83.48C359.542 79.2667 361.675 77.16 365.942 77.16C370.155 77.16 372.262 79.2 372.262 83.28V88.72H376.222V86.16C376.222 83.2267 376.969 81 378.462 79.48C379.955 77.9333 382.182 77.16 385.142 77.16C391.062 77.16 394.022 80.04 394.022 85.8V99H390.582V85.76C390.582 82.0533 388.769 80.2 385.142 80.2C381.515 80.2 379.702 82.0933 379.702 85.88V88.72C381.515 88.7467 382.969 89.2667 384.062 90.28C385.182 91.2933 385.742 92.6267 385.742 94.28C385.742 95.32 385.542 96.2 385.142 96.92C384.769 97.6133 384.235 98.1333 383.542 98.48C382.849 98.8267 382.022 99 381.062 99C379.515 99 378.315 98.6267 377.462 97.88C376.635 97.1067 376.222 95.9467 376.222 94.4V91.72H372.262V99H368.822V83.24C368.822 81.2133 367.862 80.2 365.942 80.2C363.995 80.2 363.022 81.2533 363.022 83.36V92.84C363.022 94.8133 364.022 95.96 366.022 96.28L365.302 99ZM381.222 96.16C381.809 96.16 382.195 96 382.382 95.68C382.595 95.3333 382.702 94.88 382.702 94.32C382.702 93.4667 382.422 92.8267 381.862 92.4C381.329 91.9467 380.609 91.72 379.702 91.72V94.36C379.702 95.56 380.209 96.16 381.222 96.16ZM396.712 126.2L398.552 120.44H396.152C394.179 120.44 392.659 120.027 391.592 119.2C390.499 118.4 389.952 117.067 389.952 115.2V108.64C389.952 106.613 388.992 105.6 387.072 105.6H382.552C380.392 105.6 379.312 106.453 379.312 108.16C379.312 109.013 379.699 109.613 380.472 109.96C381.246 110.333 382.206 110.68 383.352 111C384.072 111.187 384.726 111.413 385.312 111.68C385.872 111.947 386.339 112.28 386.712 112.68C387.112 113.107 387.379 113.56 387.512 114.04C387.646 114.52 387.712 115.067 387.712 115.68C387.712 116.827 387.392 117.747 386.752 118.44C386.086 119.16 385.246 119.68 384.232 120C383.219 120.32 382.139 120.48 380.992 120.48H375.872C372.112 120.48 370.232 118.707 370.232 115.16V108.64C370.232 106.613 369.272 105.6 367.352 105.6C365.406 105.6 364.432 106.653 364.432 108.76V114.32C364.432 116.293 365.446 117.44 367.472 117.76L366.712 120.48C364.899 120.347 363.499 119.76 362.512 118.72C361.499 117.707 360.992 116.253 360.992 114.36V108.88C360.992 104.667 363.112 102.56 367.352 102.56C371.592 102.56 373.712 104.6 373.712 108.68V115.24C373.712 115.907 373.832 116.48 374.072 116.96C374.312 117.44 374.726 117.68 375.312 117.68H381.032C381.912 117.68 382.672 117.507 383.312 117.16C383.926 116.813 384.232 116.307 384.232 115.64C384.232 115.16 384.046 114.787 383.672 114.52C383.272 114.28 382.726 114.04 382.032 113.8L379.032 112.76C377.992 112.387 377.206 111.813 376.672 111.04C376.139 110.267 375.872 109.333 375.872 108.24C375.872 107.013 376.166 105.973 376.752 105.12C377.339 104.293 378.126 103.653 379.112 103.2C380.072 102.773 381.139 102.56 382.312 102.56H387.072C391.312 102.56 393.432 104.6 393.432 108.68V114.88C393.432 115.733 393.672 116.4 394.152 116.88C394.606 117.36 395.246 117.6 396.072 117.6H402.632L400.072 126.2H396.712ZM413.232 99.04C412.939 99.04 412.619 99 412.272 98.92C411.952 98.84 411.606 98.7333 411.232 98.6L402.432 95V93.88C404.139 92.3867 405.432 90.8667 406.312 89.32C407.219 87.7733 407.672 86.2133 407.672 84.64V84.32C407.672 81.36 406.939 79.88 405.472 79.88H400.472L403.032 83.4H399.232L395.752 78.36L396.432 77.16H405.672C409.432 77.16 411.312 79.2 411.312 83.28C411.312 87.3067 409.872 90.6933 406.992 93.44L412.232 95.6C412.312 95.6267 412.406 95.6533 412.512 95.68C412.619 95.68 412.699 95.68 412.752 95.68C413.286 95.68 413.552 95.3067 413.552 94.56V84.68C413.552 79.6667 416.206 77.16 421.512 77.16C426.792 77.16 429.432 79.5867 429.432 84.44V99H425.952V84.4C425.952 81.6 424.472 80.2 421.512 80.2C418.526 80.2 417.032 81.64 417.032 84.52V94.84C417.032 96.2267 416.712 97.28 416.072 98C415.432 98.6933 414.486 99.04 413.232 99.04Z" fill="#344054"/>
</svg>
