<svg width="638" height="474" viewBox="0 0 638 474" fill="none" xmlns="http://www.w3.org/2000/svg">
<g clip-path="url(#clip0_2202_865)">
<path d="M587.767 115.223C515.356 14.4382 362.389 -26.4444 211.952 17.5871C132.42 40.8652 55.7365 87.5064 17.7341 177.819C-50.1992 339.262 92.4354 390.823 185.703 407.256C230.802 415.202 273.278 428.55 312.093 446.723C381.924 479.418 505.53 508.389 598.737 372.2C666.293 273.489 636.001 182.355 587.767 115.223Z" fill="#F2F2F2"/>
<path d="M167.948 135.162C167.746 133.561 167.336 131.992 166.73 130.496C166.652 130.213 166.517 129.949 166.332 129.721C166.147 129.494 165.917 129.307 165.656 129.173C165.307 129.082 164.941 129.078 164.591 129.161L159.121 129.998C158.663 130.019 158.225 130.19 157.873 130.483C157.161 131.233 157.862 132.439 157.84 133.473C157.816 134.636 156.783 135.579 155.663 135.891C154.52 136.122 153.341 136.108 152.204 135.849L144.556 134.66C146.808 133.94 148.813 132.602 150.342 130.798C151.348 129.605 151.883 127.379 150.429 126.814C149.997 126.695 149.546 126.659 149.1 126.707C145.635 126.734 142.908 123.841 139.664 122.622C137.588 121.892 135.334 121.838 133.226 122.467C131.117 123.095 129.26 124.375 127.922 126.123L131.997 126.319C132.38 126.298 132.76 126.399 133.082 126.609C133.975 127.343 132.865 128.752 132.991 129.901C133.154 131.394 135.136 131.712 136.63 131.863C138.123 132.014 140.019 133.228 139.3 134.547C131.792 137.134 124.151 129.491 116.266 130.431C114.271 130.669 112.386 131.454 110.438 131.947C98.5352 134.959 86.2301 126.922 74.071 128.624C71.3679 129.085 68.7112 129.786 66.1324 130.718C64.4775 131.262 62.7514 131.849 61.549 133.11C60.3466 134.37 59.8889 136.526 61.028 137.843C57.8884 138.102 54.7277 137.802 51.693 136.956C52.5137 137.412 53.1964 138.081 53.6695 138.892C54.1426 139.703 54.3886 140.627 54.3818 141.566C49.4796 142.366 44.7072 143.821 40.1929 145.893C41.0354 147.295 42.0195 148.606 43.1297 149.806L36.9236 153.794C39.0203 154.322 40.1044 157.182 38.885 158.968C41.0591 158.001 42.4065 155.498 44.7313 154.991C46.2543 154.658 47.804 155.282 49.2489 155.867C50.6937 156.452 52.2817 157.02 53.7775 156.581C55.2732 156.141 56.3764 154.202 55.426 152.966C61.8191 151.1 68.4262 150.068 75.0836 149.894C75.5972 149.829 76.118 149.928 76.5723 150.176C77.439 150.778 77.2109 152.077 77.1643 153.131C77.1176 154.185 77.9389 155.57 78.8806 155.095C77.7726 156.056 78.7198 157.865 79.7828 158.875C80.8459 159.886 82.1271 161.28 81.4763 162.595C81.3064 162.938 81.0184 163.212 80.8549 163.559C80.3725 164.581 81.1385 165.772 82.0419 166.45C82.9453 167.129 84.0519 167.603 84.6795 168.543C85.307 169.483 85.0221 171.128 83.8999 171.259L80.7102 167.208C79.6205 168.338 78.8734 169.754 78.5556 171.292C81.9379 174.058 82.4467 179.687 79.615 183.014C78.1679 184.715 76.1101 185.748 74.3141 187.074C72.5181 188.4 70.8561 190.289 70.8607 192.522C70.8685 196.38 70.5533 199.964 71.9986 203.54C74.6638 210.135 77.7408 216.556 81.2115 222.765C82.1229 224.396 83.3008 226.183 85.1472 226.463C82.8137 220.782 80.7132 215.012 78.8456 209.153C80.062 209.158 81.4678 209.254 82.1809 210.24C82.7714 211.056 82.6445 212.166 82.828 213.157C83.0614 214.117 83.4505 215.032 83.98 215.865L95.1227 235.718C96.0464 237.364 97.1059 239.13 98.8713 239.797C100 240.223 101.306 240.143 102.345 240.756C103.159 241.237 103.708 242.09 104.538 242.543C106.885 243.824 110.149 241.368 112.343 242.897C112.97 243.334 113.369 244.029 113.947 244.529C115.973 246.284 119.296 245.11 121.635 246.419C123.142 247.263 123.923 248.95 124.727 250.479C126.741 254.31 130 258.062 134.316 258.367C135.671 258.463 137.056 258.206 138.381 258.507C139.706 258.809 141.011 259.965 140.798 261.308C140.433 263.61 141.57 266.13 141.265 268.44C140.709 272.649 134.741 274.498 134.228 278.712C134.116 279.635 134.292 280.587 134.072 281.49C133.803 282.597 132.972 283.498 132.676 284.598C132.117 286.683 133.61 288.758 135.251 290.161C136.891 291.563 138.848 292.773 139.745 294.736C140.693 296.812 140.228 299.232 140.536 301.492C141.209 306.428 145.471 310.087 149.857 312.446C151.194 313.165 152.629 313.861 153.494 315.108C154.623 316.735 154.51 318.881 154.887 320.826C155.811 325.588 159.819 329.512 159.933 334.362C160.014 337.81 158.098 340.937 156.954 344.19C155.881 347.306 155.492 350.617 155.815 353.897C156.138 357.177 157.165 360.349 158.825 363.197C159.681 364.642 160.705 366.006 161.31 367.573C162.391 370.37 162.04 373.55 163.037 376.378C164.354 380.118 167.974 383.206 167.628 387.156C169.271 390.569 172.9 392.246 176.55 393.262L183.09 395.083C184.342 395.432 185.651 395.783 186.926 395.531C188.201 395.279 189.418 394.219 189.385 392.92C186.178 392.196 182.868 391.427 180.224 389.472C177.58 387.517 175.769 384.036 176.772 380.905C177.237 379.453 178.227 377.776 177.286 376.576C176.747 375.889 175.762 375.709 175.155 375.082C174.207 374.105 174.533 372.462 175.214 371.283C175.895 370.104 176.88 369.051 177.155 367.717C177.293 366.971 177.201 366.2 176.889 365.508C176.577 364.816 176.062 364.236 175.411 363.846C176.624 363.388 177.727 362.68 178.648 361.768C179.499 360.796 179.893 359.297 179.223 358.192C181.212 358.444 183.559 358.567 184.865 357.046C185.907 355.831 185.836 354.014 185.424 352.467C185.012 350.92 184.316 349.417 184.294 347.816C188.882 348.034 193.479 347.878 198.041 347.35C197.382 345.128 195.883 343.25 193.862 342.114C195.928 341.765 197.81 339.291 198.463 337.299C199.116 335.307 198.95 333.138 198.546 331.081C198.391 330.551 198.37 329.991 198.484 329.452C198.717 328.71 199.445 328.257 200.119 327.87L210.375 321.979C210.987 321.672 211.542 321.263 212.015 320.768C213.09 319.506 212.931 317.6 212.381 316.036C211.83 314.472 210.949 313.001 210.737 311.357C210.103 306.439 215.367 302.911 217.143 298.281C217.84 296.465 217.982 294.49 218.117 292.549C218.262 290.464 218.273 288.042 216.672 286.699C215.138 285.411 212.74 285.698 211.135 284.5C209.663 283.402 209.155 281.268 207.547 280.381C206.087 279.576 204.256 280.088 202.632 279.709C199.773 279.042 197.973 275.746 195.053 275.44C193.405 275.268 191.54 276.074 190.189 275.114C188.999 274.268 188.952 272.568 188.725 271.126C188.328 268.884 187.254 266.818 185.647 265.206C184.04 263.593 181.978 262.512 179.738 262.108C178.039 261.835 176.19 261.939 174.744 261.005C173.281 260.059 172.61 258.289 171.46 256.979C169.607 254.869 166.689 254.119 163.956 253.476L152.837 250.862C150.863 250.398 148.319 250.152 147.26 251.881C146.946 252.54 146.724 253.238 146.6 253.956C146.203 255.256 145.404 256.397 144.319 257.215C143.233 258.032 141.916 258.484 140.557 258.506C139.625 256.916 138.116 255.748 136.343 255.244C135.216 254.93 134.009 254.895 132.933 254.433C132.348 254.147 131.827 253.745 131.402 253.25C130.977 252.756 130.658 252.18 130.463 251.558C130.269 250.936 130.203 250.281 130.271 249.632C130.338 248.984 130.537 248.356 130.855 247.788C131.496 246.646 131.744 245.325 131.56 244.029C131.376 242.733 130.77 241.533 129.837 240.615C127.946 238.917 125.21 238.507 122.675 238.677C122.011 237.228 123.121 235.592 124.318 234.539C125.514 233.486 126.967 232.451 127.228 230.878C127.638 228.404 124.482 226.525 122.085 227.263C119.689 228 118.16 230.328 117.149 232.623C116.569 233.94 116.076 235.326 115.161 236.436C114.246 237.547 112.772 238.341 111.379 237.985C109.405 237.481 108.643 235.136 108.207 233.147C107.621 230.477 107.032 227.771 107.154 225.041C107.277 222.311 108.197 219.507 110.21 217.659C113.49 214.648 118.521 214.943 122.948 215.423C121.902 214.245 122.161 212.259 123.28 211.149C123.87 210.624 124.58 210.251 125.347 210.063C126.115 209.874 126.916 209.876 127.683 210.067C129.017 210.345 130.218 211.064 131.094 212.107C132.352 213.641 132.71 215.712 133.661 217.453C134.611 219.194 136.749 220.68 138.499 219.745C140.011 218.939 140.25 216.842 139.874 215.171C139.498 213.499 138.699 211.873 138.835 210.165C139.095 206.906 142.473 204.944 145.454 203.602C148.435 202.259 151.848 200.454 152.321 197.219C152.337 196.585 152.456 195.959 152.674 195.364C153.005 194.838 153.464 194.406 154.009 194.108C162.709 188.358 171.553 182.537 181.496 179.395C182.013 179.232 182.074 179.413 182.601 179.285C183.339 178.859 182.85 177.679 182.143 177.204C181.435 176.728 180.49 176.364 180.31 175.53C180.178 174.918 180.539 174.316 180.633 173.697C180.863 172.175 179.043 170.769 177.629 171.378C176.83 170.32 178.41 169.09 179.688 168.738C183.526 167.682 187.465 167.038 191.439 166.818C191.897 166.746 192.367 166.825 192.776 167.046C193.443 167.508 193.358 168.569 192.885 169.229C192.412 169.889 191.676 170.304 191.087 170.862C190.443 171.49 189.983 172.282 189.759 173.153C189.534 174.024 189.553 174.939 189.813 175.8C191.888 176.856 194.143 177.942 196.441 177.57C198.739 177.199 200.778 174.616 199.698 172.554C198.692 170.634 195.671 170.201 195.152 168.096C194.544 165.631 198.031 163.44 197.246 161.026C196.902 159.969 195.848 159.347 195.04 158.583C194.085 157.647 193.436 156.445 193.177 155.133C192.918 153.821 193.062 152.462 193.59 151.234C192.273 151.465 190.92 151.378 189.644 150.979C188.368 150.579 187.207 149.88 186.257 148.939C184.503 147.168 183.104 144.376 180.614 144.455C178.328 144.527 176.36 147.194 174.223 146.381C173.697 146.181 173.143 145.773 172.633 146.012C172.466 146.12 172.326 146.265 172.223 146.436C172.121 146.606 172.058 146.798 172.04 146.996C171.497 149.593 172.431 152.552 171.016 154.796C169.476 157.238 165.915 157.577 164.048 159.779C163.034 160.974 162.642 162.585 161.71 163.845C160.779 165.106 158.802 165.907 157.684 164.809C158.233 163.679 158.383 162.396 158.109 161.17C157.836 159.944 157.154 158.847 156.176 158.059C155.138 157.382 154.02 156.837 152.846 156.439C151.535 155.884 150.288 155.188 149.126 154.365C148.544 154.014 148.071 153.508 147.76 152.904C147.514 152.147 147.547 151.327 147.854 150.592C148.421 148.967 149.421 147.527 150.746 146.428C152.071 145.33 153.671 144.614 155.373 144.359C156.861 144.156 158.594 144.227 159.579 143.093C160.1 142.493 160.373 141.586 161.13 141.342C161.614 141.245 162.116 141.307 162.562 141.518L168.117 143.474C168.737 143.754 169.419 143.867 170.096 143.801C170.432 143.756 170.738 143.586 170.953 143.324C171.168 143.063 171.277 142.729 171.256 142.391C171.079 141.468 169.659 141.026 169.789 140.095C169.861 139.793 170.023 139.521 170.253 139.313C172.258 137.179 174.71 135.514 177.434 134.439C180.157 133.363 183.084 132.903 186.006 133.091C186.707 134.243 185.598 135.607 184.676 136.59C183.753 137.574 183.012 139.33 184.127 140.087C184.585 140.321 185.093 140.435 185.607 140.421C186.974 140.606 188.304 141.009 189.544 141.615C191.463 142.451 193.346 143.365 195.192 144.358C195.029 143.14 194.874 141.858 195.335 140.719C195.796 139.581 197.107 138.688 198.253 139.132C199.356 139.559 199.922 141.021 201.098 141.155C202.667 141.333 203.286 139.015 202.631 137.579C201.975 136.142 200.678 134.939 200.57 133.364C200.497 132.301 200.901 130.983 200.053 130.339C199.751 130.146 199.408 130.026 199.051 129.988L177.858 126.088C176.6 125.856 174.782 126.034 174.726 127.312C174.695 128.026 175.332 128.732 175.05 129.388C174.749 130.089 173.759 130.025 173.038 130.272C171.919 130.657 171.358 131.985 171.465 133.163C171.662 134.334 172.115 135.447 172.793 136.422C171.414 135.845 169.327 135.739 167.948 135.162Z" fill="#3F3D56"/>
<path d="M151.039 117.169C149.702 116.726 148.262 116.706 146.914 117.11C145.565 117.514 144.373 118.323 143.5 119.427C143.151 119.886 142.858 120.52 143.15 121.017C143.569 121.731 144.636 121.449 145.423 121.194C146.579 120.781 147.838 120.751 149.013 121.108C149.752 121.362 150.413 121.81 151.155 122.054C151.516 122.206 151.912 122.255 152.299 122.199C152.686 122.142 153.051 121.981 153.354 121.733C153.863 121.214 153.895 120.406 153.896 119.678C153.931 119.435 153.912 119.187 153.839 118.952C153.766 118.717 153.642 118.501 153.475 118.32C153.178 118.148 152.844 118.049 152.501 118.032C151.734 117.89 151.04 117.484 150.539 116.885" fill="#3F3D56"/>
<path d="M158.68 115.041C158.381 115.024 158.083 115.085 157.814 115.218C157.546 115.35 157.315 115.549 157.146 115.796C156.976 116.043 156.873 116.33 156.847 116.628C156.82 116.926 156.87 117.227 156.993 117.5C157.911 117.75 158.871 117.813 159.814 117.684C160.285 117.611 160.723 117.4 161.074 117.078C161.425 116.757 161.673 116.338 161.786 115.876C160.676 116.078 159.53 115.859 158.572 115.262" fill="#3F3D56"/>
<path d="M184.319 111.487C181.819 112.018 179.391 112.843 177.084 113.945C178.172 114.363 179.096 115.119 179.721 116.102C180.346 117.085 180.639 118.243 180.556 119.405C180.459 119.852 180.47 120.315 180.589 120.755C180.855 121.4 181.625 121.641 182.302 121.807C183.518 122.177 184.788 122.339 186.058 122.286C186.693 122.253 187.31 122.062 187.853 121.73C188.396 121.398 188.847 120.936 189.167 120.386C189.351 119.864 189.567 119.353 189.813 118.857C191.436 116.386 196.256 119.374 197.998 116.986C198.611 116.144 198.555 114.877 199.355 114.211C199.769 113.92 200.248 113.737 200.751 113.678C204.254 112.982 207.792 112.478 211.35 112.168C213.036 112.021 215.234 111.416 215.248 109.723C208.898 108.476 202.313 109.362 196.518 112.243C194.431 113.289 191.669 115.49 189.658 114.103C188.905 113.584 188.942 112.186 187.906 111.602C186.846 111.005 185.444 111.248 184.319 111.487Z" fill="#3F3D56"/>
<path d="M205.086 115.371L208.067 115.944C207.518 115.92 206.971 116.013 206.461 116.217C205.951 116.421 205.49 116.731 205.11 117.128C204.73 117.524 204.438 117.997 204.255 118.515C204.072 119.032 204.001 119.583 204.047 120.131C206.839 121.064 209.882 120.156 212.823 120.28C215.763 120.404 219.185 122.505 218.683 125.405C218.531 126.282 218.024 127.159 218.288 128.009C218.472 128.605 218.998 129.028 219.294 129.577C219.912 130.72 219.418 132.167 218.638 133.206C217.858 134.246 216.809 135.076 216.124 136.18C214.42 138.928 215.388 142.481 216.403 145.55C216.696 146.71 217.238 147.793 217.991 148.723C219.495 150.322 221.945 150.461 224.139 150.493C225.736 150.516 227.566 150.437 228.576 149.199C229.894 147.583 228.972 145.062 229.841 143.166C230.629 141.444 232.638 140.705 234.458 140.181C237.792 139.22 241.19 138.404 244.342 136.954C248.257 135.153 251.915 132.347 256.217 132.115C257.424 132.05 258.661 132.193 259.823 131.862C260.986 131.531 262.09 130.526 262.002 129.32C261.927 128.29 261.056 127.533 260.375 126.757C259.694 125.98 259.159 124.786 259.785 123.964L271.062 121.857C270.262 119.678 269.64 116.809 271.476 115.391C272.139 114.879 273.026 114.674 273.591 114.056C274.552 113.001 274.069 111.185 272.959 110.288C271.848 109.392 270.347 109.184 268.925 109.065C263.981 108.655 259.008 108.926 254.054 109.198C244.369 109.729 234.685 110.26 225.001 110.791C223.051 110.897 220.8 110.734 219.012 111.399C217.499 111.963 216.422 112.996 214.691 113.36C211.495 114.03 207.978 113.576 205.086 115.371Z" fill="#3F3D56"/>
<path d="M258.488 138.938C258.184 138.89 257.874 138.96 257.62 139.135C257.453 139.319 257.353 139.555 257.338 139.804C257.145 140.901 257.375 142.031 257.98 142.967C258.288 143.426 258.713 143.794 259.212 144.033C259.71 144.272 260.264 144.373 260.815 144.326C262.157 144.155 263.146 143.01 264.38 142.451C266.282 141.59 274.359 140.249 268.771 137.23C266.846 136.189 265.602 137.108 264.084 137.793C262.358 138.676 260.423 139.072 258.488 138.938Z" fill="#3F3D56"/>
<path d="M307.425 113.667C306.772 113.933 306.227 114.408 305.873 115.018C305.71 115.327 305.672 115.688 305.767 116.024C305.862 116.361 306.083 116.648 306.384 116.827C306.628 116.915 306.886 116.956 307.145 116.947L309.798 117.027C310.925 117.06 312.332 117.3 312.635 118.387C312.86 119.193 312.357 120.23 312.964 120.806C313.225 121.008 313.538 121.13 313.866 121.158C314.74 121.382 315.653 121.412 316.539 121.244C318.469 120.726 317.455 119.548 318.063 118.499C318.993 116.894 318.832 117.865 320.471 116.945C321.681 116.266 323.245 115.034 322.235 113.302C320.478 110.29 310.017 112.373 307.425 113.667Z" fill="#3F3D56"/>
<path d="M359.783 112.153L358.242 112.358C354.769 112.822 351.276 113.29 347.93 114.333C349.378 114.906 350.898 115.279 352.446 115.441C353.299 115.483 354.146 115.604 354.976 115.801C356.454 116.241 357.943 117.377 359.37 116.795C360.255 116.434 360.544 115.513 361.278 115.024C361.784 114.687 363.704 114.141 363.919 113.8C365.654 111.048 361.117 111.975 359.783 112.153Z" fill="#3F3D56"/>
<path d="M366.547 119.155C364.489 120.306 362.58 121.704 360.862 123.319C360.139 123.999 359.399 124.845 359.465 125.837C359.552 127.154 360.955 127.919 362.171 128.433L367.095 130.519C367.693 129.676 367.146 128.514 366.529 127.686C365.911 126.859 365.178 125.901 365.45 124.905C365.762 123.769 367.147 123.382 368.309 123.186C370.202 122.867 375.308 122.893 374.694 119.841C373.971 116.246 368.447 118.093 366.547 119.155Z" fill="#3F3D56"/>
<path d="M365.557 322.604C365.088 323.962 365.043 325.561 365.854 326.746C366.764 328.076 368.585 328.571 370.161 328.234C371.729 327.817 373.128 326.917 374.159 325.663C375.102 324.612 375.877 323.422 376.458 322.136C377.27 320.13 377.842 318.036 378.163 315.897L379.692 307.868C380.034 306.074 380.02 300.573 376.723 302.365C375.822 302.855 373.737 306.721 372.793 307.817C371.091 309.793 370.866 311.71 369.97 314.104C368.848 317.102 366.594 319.601 365.557 322.604Z" fill="#3F3D56"/>
<path d="M539.713 363.691C538.634 363.27 537.587 362.771 536.58 362.199C535.57 364.976 535.033 367.903 534.992 370.857L542.375 366.679C543.485 366.05 544.744 365.177 544.72 363.901C544.73 363.743 544.698 363.586 544.626 363.445C544.554 363.304 544.446 363.186 544.312 363.101C544.148 363.036 543.969 363.015 543.795 363.041C542.7 363.132 541.702 363.671 540.669 364.045C539.636 364.42 538.428 364.618 537.481 364.062" fill="#3F3D56"/>
<path d="M578.661 366.172C577.85 366.392 577.059 366.677 576.293 367.022C574.599 367.884 573.446 369.522 571.921 370.657C570.462 371.744 568.706 372.341 566.982 372.921C566.475 373.369 566.708 374.272 567.258 374.666C567.85 375.003 568.529 375.156 569.208 375.105C571 375.144 572.887 375.161 574.456 374.296C575.34 373.722 576.167 373.066 576.926 372.335C578.761 370.804 580.964 369.794 583.144 368.818C583.938 368.518 584.672 368.079 585.311 367.522C586.682 366.171 586.778 364.088 584.802 363.629C583.206 363.257 580.181 365.68 578.661 366.172Z" fill="#3F3D56"/>
<path d="M595.869 354.929C595.958 354 595.834 353.062 595.508 352.188C595.181 351.314 594.66 350.525 593.985 349.881C593.964 351.74 593.908 353.721 592.863 355.258C592.118 356.353 590.95 357.093 590.134 358.136C589.318 359.18 588.956 360.833 589.913 361.749C590.525 362.214 591.27 362.471 592.039 362.481C593.944 362.705 596.149 362.831 597.486 361.454C598.215 360.702 598.57 359.589 599.459 359.037C599.791 358.898 600.087 358.686 600.325 358.417C600.693 357.833 600.109 357.063 599.452 356.853C598.795 356.642 598.071 356.741 597.411 356.542C596.751 356.342 596.145 355.599 596.484 354.998" fill="#3F3D56"/>
<path d="M565.284 286.771C564.285 287.014 563.249 287.075 562.228 286.951C560.532 286.64 559.212 285.361 557.842 284.312C554.587 281.833 550.63 280.45 546.539 280.362C542.818 280.292 539.062 281.301 535.407 280.597C535.646 281.925 536.783 282.922 537.995 283.514C539.208 284.106 540.546 284.404 541.764 284.984C543.716 285.922 545.263 287.533 546.124 289.52C546.516 290.436 546.763 291.433 547.357 292.233C548.572 293.868 550.875 294.227 552.908 294.093C555.557 293.919 558.325 293.157 560.79 294.144C562.676 294.9 564.026 296.551 565.6 297.834C567.175 299.118 569.393 300.071 571.201 299.144C569.323 298.536 567.688 297.344 566.536 295.741C565.383 294.138 564.773 292.208 564.795 290.234C566.568 290.397 571.676 290.334 571.4 287.32C571.167 284.766 566.807 286.496 565.284 286.771Z" fill="#3F3D56"/>
<path d="M542.085 307.552C542.4 305.825 544.123 304.3 543.586 302.628C543.215 301.472 541.875 300.901 540.661 300.873C539.448 300.844 538.255 301.206 537.042 301.24C536.252 301.198 535.46 301.209 534.672 301.273C532.263 301.669 530.778 304.195 528.508 305.093C527.128 305.639 525.577 305.534 524.141 305.912C520.883 306.769 518.821 309.849 516.543 312.332C512.862 316.326 508.067 319.123 502.778 320.361C500.926 320.79 498.934 321.064 497.461 322.268C495.511 323.862 495.031 326.594 494.597 329.076C493.398 335.929 491.566 342.656 489.124 349.17L496.862 350.158C498.333 350.346 499.857 350.53 501.275 350.094C502.305 349.705 503.281 349.186 504.178 348.548C507.624 346.408 511.481 345.015 515.499 344.46C517.526 344.182 519.65 344.131 521.552 344.884C523.453 345.638 525.085 347.346 525.244 349.385C526.066 349.13 526.943 349.102 527.78 349.306C528.616 349.509 529.382 349.936 529.995 350.541C531.207 351.776 532 353.36 532.264 355.07C532.467 356.129 532.671 357.398 533.654 357.842C534.455 358.205 535.374 357.814 536.251 357.744C539.226 357.506 541.695 360.976 544.619 360.378C547.755 359.737 548.525 355.04 551.584 354.099C553.341 353.558 555.806 354.215 556.648 352.581C557.389 351.14 555.91 349.477 556.062 347.863C556.25 345.877 558.593 345.033 560.399 344.186C566.626 341.263 569.581 332.881 566.564 326.698C564.776 323.035 561.258 320.151 560.608 316.127C560.109 313.031 561.329 309.421 559.355 306.984C558.351 305.744 556.651 305.059 556.054 303.58C555.678 302.649 555.829 301.593 555.627 300.609C555.424 299.625 554.566 298.596 553.595 298.851C550.776 299.591 549.876 308.302 548.367 310.418C546.073 313.635 541.363 311.516 542.085 307.552Z" fill="#3F3D56"/>
<path d="M489.98 290.062C489.016 289.792 487.964 289.526 487.041 289.912C486.118 290.298 485.579 291.654 486.32 292.326C492.116 292.1 497.947 291.876 503.693 292.663C510.314 293.57 516.866 295.817 523.516 295.156C519.718 294.035 515.856 293.139 511.952 292.472L505.442 291.228C503.696 290.863 501.931 290.59 500.156 290.411C496.442 290.105 493.631 291.086 489.98 290.062Z" fill="#3F3D56"/>
<path d="M495.782 269.873C495.301 269.833 494.705 269.798 494.456 270.212C494.218 270.607 494.49 271.129 494.362 271.573C494.188 272.178 493.395 272.333 492.77 272.251C492.145 272.168 491.469 271.971 490.916 272.272C490.635 272.464 490.424 272.742 490.315 273.063C490.205 273.385 490.203 273.734 490.308 274.057C490.535 274.699 490.901 275.283 491.38 275.766C492.198 276.798 493.131 277.734 494.16 278.555C496.152 280.026 498.851 280.735 500.105 282.87C500.282 283.283 500.554 283.65 500.899 283.939C501.502 284.32 502.287 284.03 502.936 283.733L505.209 282.695C505.618 282.547 505.984 282.298 506.271 281.972C506.791 281.267 506.472 280.265 506.036 279.506C505.6 278.747 505.042 277.961 505.135 277.09C505.302 275.538 507.297 274.945 508.118 273.617C508.945 272.278 508.406 270.554 508.502 268.983C508.613 267.146 509.767 264.757 507.911 263.384C506.333 262.218 504.825 263.296 503.692 264.583C501.303 267.299 500.173 270.24 495.782 269.873Z" fill="#3F3D56"/>
<path d="M509.579 242.428C510.355 243.915 511.973 244.802 512.819 246.249C513.737 247.818 513.632 249.845 514.627 251.365C515.648 252.925 517.703 253.753 518.275 255.528C518.9 257.465 517.482 259.82 518.612 261.512C518.823 261.789 519.089 262.019 519.394 262.187C519.698 262.356 520.034 262.459 520.38 262.491C520.727 262.523 521.076 262.483 521.406 262.372C521.736 262.262 522.039 262.085 522.297 261.851C522.773 261.332 523.028 260.647 523.008 259.943C522.987 259.238 522.692 258.57 522.185 258.08C521.516 257.469 520.555 257.205 519.996 256.492C519.705 256.081 519.511 255.609 519.429 255.112C519.124 253.677 519.173 252.19 519.571 250.779C519.72 250.42 519.758 250.025 519.68 249.645C519.428 248.914 518.438 248.862 517.743 248.523C516.164 247.752 516.203 245.524 516.479 243.788C516.295 244.944 512.181 242.979 511.75 242.325C510.894 241.025 511.36 238.517 511.191 237.081C509.343 237.971 508.63 240.611 509.579 242.428Z" fill="#3F3D56"/>
<path d="M468.132 265.295C467.373 264.445 466.229 263.555 465.211 264.068C464.435 264.459 464.221 265.534 464.525 266.349C464.896 267.14 465.467 267.821 466.182 268.324C468.303 270.074 470.588 271.653 472.439 273.688C475.751 277.328 477.505 282.241 481.108 285.595C481.832 286.372 482.79 286.891 483.837 287.072C484.887 287.17 486.065 286.498 486.186 285.451C486.285 284.588 485.684 283.816 485.096 283.177C483.697 281.654 482.165 280.253 480.844 278.662C480.234 278.051 479.851 277.251 479.757 276.392C479.751 275.536 480.531 274.639 481.361 274.851C480.352 274.593 479.604 272.912 478.123 272.596C476.885 272.332 476.586 273.098 475.113 272.466C472.304 271.261 470.1 267.498 468.132 265.295Z" fill="#3F3D56"/>
<path d="M534.14 182.507C533.334 182.268 532.542 181.985 531.767 181.659C529.681 181.033 526.921 182.567 527.199 184.727C527.384 186.162 528.72 187.13 529.457 188.375C530.551 190.221 530.259 192.563 529.685 194.631C529.543 195.271 529.275 195.877 528.895 196.411C528.365 196.975 527.73 197.432 527.026 197.756C524.21 199.336 521.726 201.446 519.712 203.971C519.493 204.204 519.34 204.492 519.27 204.804C519.17 205.534 519.903 206.065 520.318 206.673C521.238 208.025 520.573 209.843 520.664 211.476C520.65 211.707 520.695 211.937 520.795 212.146C520.896 212.354 521.047 212.534 521.236 212.667C521.791 212.949 522.448 212.47 522.749 211.925C523.747 210.117 522.995 207.214 524.868 206.342C525.222 206.177 525.651 206.107 525.888 205.796C526.262 205.302 525.901 204.571 526.091 203.981C526.376 203.095 527.587 203.056 528.517 203.095C530.119 203.162 531.719 202.949 533.248 202.465C533.847 202.322 534.392 202.007 534.814 201.558C535.373 200.859 535.324 199.866 535.212 198.978C534.652 194.549 533.249 190.269 531.08 186.368C532.725 186.578 534.514 186.76 535.934 185.903C536.728 185.423 537.681 183.987 537.287 183.01C536.664 181.465 535.538 182.766 534.14 182.507Z" fill="#3F3D56"/>
<path d="M323.291 206.862C323.488 207.918 323.682 209.03 323.336 210.047C322.99 211.064 321.902 211.913 320.874 211.602C320.076 211.36 319.616 210.558 319.049 209.946C315.9 206.546 308.794 208.514 306.849 204.307C306.055 202.59 306.594 200.533 306.053 198.72C305.711 197.673 305.031 196.768 304.12 196.149C303.209 195.53 302.118 195.231 301.018 195.299C300.015 195.444 299.039 195.736 298.121 196.164C291.97 198.628 285.512 200.244 278.925 200.967C277.673 201.043 276.435 201.268 275.237 201.638C272.532 202.618 270.684 205.126 269.369 207.686C268.054 210.245 267.083 213.015 265.32 215.289C263.467 217.678 260.87 219.352 258.448 221.162C257.515 221.763 256.738 222.578 256.181 223.538C255.656 224.616 255.686 225.87 255.726 227.069L256.221 241.628C256.285 243.5 256.365 245.44 257.203 247.116C258.249 249.208 260.316 250.579 261.75 252.427C263.214 254.327 263.976 256.674 263.908 259.071C263.878 260.035 263.782 261.175 264.532 261.78C264.989 262.077 265.523 262.23 266.067 262.222L285.757 263.834C289.22 264.117 293.059 264.583 295.32 267.223C296.387 268.468 297.244 270.26 298.879 270.393C299.58 270.451 300.263 270.163 300.964 270.107C302.733 269.967 304.287 271.31 305.268 272.79C306.753 275.045 307.427 277.738 307.18 280.426C307.019 282.114 306.496 283.755 306.383 285.446C305.954 291.883 311.409 297.475 311.515 303.925C311.577 307.718 309.776 311.263 308.021 314.627C310.854 318.92 308.534 324.637 309.662 329.656C310.732 334.417 314.701 338.145 315.691 342.924C316.143 345.112 316.17 347.805 318.098 348.931C318.945 349.344 319.883 349.532 320.823 349.477C326.493 349.544 332.098 348.268 337.18 345.753C339.565 344.569 342.037 342.801 342.453 340.171C342.789 338.05 341.714 335.677 342.808 333.829C344.098 331.652 347.403 331.824 349.301 330.15C352.38 327.434 349.979 322.254 351.226 318.341C352.348 314.825 356.208 312.957 358.122 309.8C358.875 308.443 359.415 306.978 359.724 305.457C360.601 301.821 361.146 298.113 361.354 294.379C361.405 292.11 361.572 289.845 361.855 287.593C363.918 274.773 376.59 266.189 380.704 253.873C381.097 252.697 381.281 251.13 380.235 250.465C379.614 250.169 378.911 250.095 378.243 250.256L369.166 251.401C368.039 251.543 366.844 251.676 365.809 251.207C364.773 250.739 364.031 249.429 364.58 248.434C366.122 245.641 362.951 242.112 361.542 239.25C357.748 231.543 353.23 224.214 348.049 217.362C347.717 217.01 347.509 216.559 347.457 216.078L350.033 216.163C349.164 213.043 347.729 209.627 344.697 208.486C342.989 207.842 341.097 208.065 339.275 208.164C334.055 208.45 328.458 207.661 323.291 206.862Z" fill="#3F3D56"/>
<path d="M339.279 136.533C340.645 137.984 342.176 139.522 344.152 139.775C347.643 140.222 350.153 136.611 351.751 133.475C351.81 134.275 352.179 135.019 352.779 135.551C353.379 136.083 354.162 136.36 354.963 136.323C355.825 136.178 356.647 135.856 357.379 135.378C364.295 131.598 372.042 129.595 379.924 129.549C379.849 128.952 379.997 128.348 380.34 127.853C380.683 127.359 381.198 127.009 381.784 126.872C383.386 126.554 384.83 127.94 385.603 129.379C386.376 130.819 386.858 132.487 388.086 133.565C389.314 134.642 391.692 134.595 392.177 133.035C392.643 131.537 391.083 130.26 389.787 129.376C388.49 128.493 387.124 126.859 387.997 125.555C394.619 124.089 401.283 122.617 408.06 122.326C409.213 122.366 410.363 122.168 411.437 121.744C412.47 121.237 413.292 120.085 413.014 118.968C411.535 119.316 409.986 119.215 408.565 118.679C407.143 118.142 405.914 117.195 405.033 115.957C414.436 115.181 424.437 114.519 432.77 118.945C433.77 121.092 428.673 122.878 430.037 124.815C430.472 125.433 431.343 125.505 432.099 125.519C437.889 125.627 443.714 125.732 449.439 124.858C451.531 124.538 453.645 124.087 455.745 124.346C459.244 124.778 462.237 127.113 465.679 127.874C467.08 128.184 468.651 128.194 469.832 127.379C471.013 126.564 471.521 124.708 470.553 123.649C473.794 120.472 479.173 121.259 483.449 122.78C487.725 124.301 491.775 126.754 496.301 127.093C499.546 127.336 502.836 126.463 506.043 127.018C508.058 127.367 509.933 128.264 511.902 128.814C515.627 129.856 519.567 129.636 523.435 129.687C533.302 129.819 543.062 131.759 552.231 135.41C553.424 135.798 554.517 136.444 555.432 137.301C556.285 138.215 556.72 139.635 556.147 140.746L546.673 139.361C547.565 141.119 549.875 141.419 551.75 142.025C553.626 142.631 555.57 144.703 554.443 146.32C552.411 145.673 550.569 147.705 549.543 149.575C548.516 151.444 547.266 153.684 545.136 153.797C543.229 153.899 540.923 152.275 539.68 153.725C541.397 155.892 542.868 158.244 544.064 160.736C545.292 163.295 546.167 166.519 544.507 168.821C544.246 169.232 543.85 169.54 543.387 169.69C542.031 170.034 541.15 168.375 540.178 167.37C538.953 166.103 537.101 165.744 535.442 165.15C533.783 164.556 532.036 163.387 531.906 161.629C531.825 160.536 532.402 159.519 532.827 158.509C533.542 156.805 533.855 154.96 533.741 153.116C533.648 151.632 533.232 150.089 532.167 149.053C531.102 148.016 529.263 147.687 528.119 148.637C527.585 149.08 527.158 149.788 526.465 149.815C525.241 149.862 524.301 147.727 523.316 148.455C523.431 149.232 523.27 150.024 522.861 150.694C519.922 153.251 515.406 152.169 511.617 153.072C509.815 153.588 508.09 154.342 506.487 155.313C505.887 155.57 505.377 155.998 505.021 156.544C504.548 157.464 505.069 158.641 505.903 159.252C506.787 159.795 507.781 160.134 508.812 160.245C513.431 161.121 518.118 162.475 521.766 165.443C525.413 168.411 527.804 173.317 526.65 177.876L517.54 169.169C517.886 172.825 518.083 176.49 518.129 180.166C518.188 180.884 518.09 181.606 517.841 182.282C517.191 183.716 515.431 184.199 513.888 184.516C513.459 184.597 513.053 184.769 512.694 185.019C512.336 185.269 512.035 185.592 511.811 185.966C511.586 186.341 511.444 186.759 511.392 187.193C511.341 187.627 511.382 188.066 511.512 188.483C512.06 190.27 513.426 191.663 514.678 193.051C515.929 194.439 517.16 196.016 517.324 197.878C517.488 199.739 516.083 201.838 514.219 201.708C512.806 201.61 511.758 200.345 511.155 199.063C510.553 197.781 510.194 196.353 509.288 195.263C506.547 191.966 500.391 193.379 497.935 189.864C497.309 190.574 496.875 191.432 496.674 192.357C496.473 193.282 496.512 194.244 496.787 195.149C497.929 194.434 499.493 195.099 500.351 196.138C501.21 197.177 501.615 198.51 502.289 199.677C503.198 201.252 504.646 202.649 504.773 204.463C504.739 205.149 504.75 205.837 504.807 206.522C505.033 207.621 505.962 208.41 506.606 209.329C508.105 211.468 508.031 214.405 507.065 216.831C506.099 219.258 504.363 221.285 502.644 223.25C499.641 226.684 496.577 230.096 493.017 232.947C492.001 233.761 490.917 234.561 490.285 235.698C489.652 236.836 489.619 238.432 490.592 239.297C489.896 239.332 488.648 239.674 487.953 239.709C487.708 236.918 487.655 234.113 487.794 231.315C485.049 229.997 482.093 233.527 482.447 236.552C482.801 239.578 484.989 242.005 486.546 244.623C487.685 246.536 488.532 248.768 488.152 250.963C487.771 253.157 485.813 255.182 483.594 254.988C480.066 254.681 478.59 249.614 475.095 249.034C474.787 248.961 474.464 248.994 474.176 249.125C473.657 249.41 473.567 250.104 473.538 250.695C473.395 253.596 473.271 256.613 474.403 259.287C476.06 263.2 480.339 266.487 479.441 270.64C474.605 268.392 472.091 262.968 470.95 257.758C469.808 252.548 469.618 247.079 467.572 242.154C466.018 244.146 462.752 242.499 461.332 240.409C459.987 238.428 459.158 236.136 457.852 234.129C456.546 232.121 454.546 230.323 452.154 230.212C449.646 230.097 447.47 231.818 445.558 233.445C443.985 234.782 442.37 236.173 441.45 238.021C440.112 240.712 440.462 243.884 440.398 246.888C440.328 250.136 439.64 253.563 437.427 255.941C435.213 258.318 431.128 259.146 428.687 257.003C427.413 255.885 426.796 254.213 426.246 252.609C423.597 244.875 421.39 236.996 419.637 229.011C419.227 230.833 417.627 233.182 416.098 232.109C415.755 231.82 415.477 231.462 415.283 231.058C412.432 226.225 407.152 223.325 401.817 221.587C396.482 219.849 390.868 219.038 385.593 217.127C382.636 216.056 379.812 214.649 377.176 212.934C376.505 213.922 376.112 215.072 376.041 216.265C375.97 217.457 376.222 218.646 376.772 219.706C377.942 221.779 380.591 222.978 382.858 222.254C384.029 221.879 385.018 221.066 386.181 220.664C387.343 220.263 388.903 220.46 389.411 221.58C389.898 222.652 389.163 223.949 389.527 225.069C390.083 226.774 392.654 226.905 393.553 228.456C394.222 229.611 393.672 231.144 392.716 232.075C391.761 233.007 390.487 233.518 389.321 234.166C385.539 236.27 382.849 239.861 379.543 242.656C376.237 245.45 371.572 247.49 367.633 245.698C368.572 240.941 362.907 237.449 361.865 232.714C361.522 231.156 361.7 229.5 361.21 227.981C360.501 225.783 358.55 224.271 356.95 222.604C355.01 220.561 353.498 218.15 352.504 215.513C351.51 212.876 351.054 210.066 351.163 207.25C351.25 205.293 351.609 203.305 351.163 201.397C350.718 199.49 349.139 197.644 347.182 197.73C342.714 197.928 337.084 198.26 334.74 194.45C333.903 193.09 333.539 191.099 334.749 190.057C335.602 189.322 336.862 189.391 337.982 189.501L348.051 190.492C350.406 190.724 352.951 190.915 354.972 189.683C356.993 188.452 357.868 185.184 355.997 183.735C354.63 182.676 352.181 182.734 351.783 181.051C351.452 179.649 353.003 178.059 352.166 176.888C351.565 176.048 350.214 176.281 349.396 176.91C348.578 177.54 347.984 178.461 347.068 178.937C345.462 179.774 343.542 178.978 341.813 178.437C340.085 177.896 337.768 177.85 336.929 179.456C335.992 181.252 337.761 183.605 336.83 185.404C335.6 187.783 331.434 186.429 329.706 188.475C327.723 190.824 331.055 194.325 330.386 197.325C329.533 197.748 328.584 197.942 327.633 197.889C326.682 197.835 325.761 197.536 324.96 197.02C324.172 196.484 323.544 195.745 323.143 194.881C322.742 194.016 322.583 193.059 322.682 192.112C322.848 190.762 323.551 189.385 323.08 188.109C322.699 187.078 321.664 186.464 320.702 185.933L310.918 180.525C310.009 182.21 311.158 184.3 312.594 185.566C314.03 186.832 315.829 187.785 316.773 189.451C317.369 190.606 317.503 191.944 317.147 193.194C316.79 194.444 315.97 195.51 314.854 196.175C314.714 196.272 314.555 196.337 314.387 196.366C314.22 196.395 314.048 196.388 313.884 196.344C313.728 196.253 313.592 196.131 313.484 195.985C313.376 195.84 313.298 195.674 313.255 195.498C311.529 191.08 308.937 186.723 304.793 184.415C300.649 182.107 294.695 182.581 291.977 186.47C291.332 187.393 290.899 188.446 290.337 189.422C287.349 194.61 280.945 197.067 274.962 196.906C274.377 196.939 273.795 196.802 273.285 196.512C272.318 195.844 272.362 194.427 272.51 193.26L273.138 188.312C273.264 187.318 273.446 186.22 274.233 185.6C275.341 184.725 276.94 185.277 278.352 185.257C279.421 185.207 280.449 184.829 281.297 184.175C282.144 183.52 282.77 182.621 283.09 181.599C283.375 180.567 283.373 179.477 283.085 178.446C282.796 177.415 282.231 176.482 281.452 175.748C280.805 175.14 279.937 174.376 280.278 173.557C280.415 173.33 280.599 173.136 280.818 172.989C281.038 172.841 281.287 172.743 281.548 172.702C284.084 171.965 286.763 171.772 289.256 170.903C291.749 170.035 294.167 168.257 294.758 165.683C294.939 164.894 295.021 163.938 295.729 163.547C296.085 163.397 296.467 163.319 296.852 163.318C298.204 163.125 299.435 162.434 300.302 161.379C301.17 160.325 301.611 158.984 301.54 157.62C302.735 156.785 304.409 157.399 305.565 158.287C306.721 159.176 307.741 160.349 309.148 160.732C311.769 161.446 314.302 159.124 317.019 159.114C318.161 159.109 319.344 159.513 320.418 159.126C321.508 158.733 322.159 157.648 322.995 156.847C323.831 156.045 325.298 155.556 326.07 156.42L325.413 151.548C326.737 151.883 328.118 151.93 329.462 151.687C330.806 151.444 332.082 150.917 333.205 150.139L324.707 147.267C324.411 147.194 324.138 147.048 323.913 146.842C323.295 146.177 323.908 145.14 324.411 144.384C325.613 142.574 325.814 139.594 323.838 138.693C322.489 138.078 320.941 138.816 319.646 139.538L313.443 142.997C313.246 144.176 314.688 144.845 315.581 145.639C316.122 146.119 316.504 146.752 316.679 147.454C316.853 148.156 316.811 148.895 316.558 149.572C316.305 150.25 315.853 150.835 315.262 151.252C314.67 151.668 313.967 151.895 313.244 151.904C313.652 152.435 313.936 153.051 314.074 153.707C314.212 154.363 314.201 155.041 314.041 155.692L309.868 155.992C309.4 156.086 308.913 155.991 308.515 155.728C308.068 155.331 308.129 154.636 308.025 154.048C307.776 152.629 306.386 151.634 304.968 151.379C303.55 151.124 302.1 151.451 300.695 151.774C300.099 151.989 299.444 151.973 298.859 151.732C298.523 151.513 298.268 151.191 298.132 150.814C297.516 149.321 298.092 147.566 299.08 146.29C300.069 145.013 301.423 144.08 302.638 143.017C305.545 140.466 307.681 137.152 308.804 133.451C311.102 132.488 313.48 131.18 315.777 130.218C319.319 128.424 323.291 127.654 327.246 127.995L335.026 128.144C337.33 128.188 339.696 128.244 341.825 129.122C343.955 130.001 345.827 131.9 345.974 134.2C346.018 134.46 345.996 134.728 345.909 134.977C345.821 135.226 345.672 135.449 345.475 135.625C345.174 135.789 344.834 135.866 344.492 135.847C342.343 135.922 341.427 136.458 339.279 136.533Z" fill="#3F3D56"/>
<path d="M277.267 160.921C277.571 160.633 277.79 160.267 277.899 159.863C278.009 159.459 278.005 159.033 277.888 158.631C277.148 158.345 276.343 158.272 275.564 158.419C274.785 158.566 274.063 158.928 273.478 159.464C273.017 159.93 272.62 160.455 272.297 161.026C271.275 162.694 270.37 164.687 270.963 166.551C271.011 166.755 271.1 166.946 271.223 167.115C271.346 167.284 271.502 167.426 271.681 167.534C271.947 167.641 272.233 167.685 272.518 167.665C273.645 167.664 274.77 167.594 275.888 167.458C276.574 167.374 277.371 167.18 277.637 166.541C277.986 165.701 277.141 164.751 277.387 163.876C277.549 163.484 277.795 163.133 278.106 162.846C278.261 162.701 278.38 162.523 278.453 162.324C278.527 162.126 278.553 161.913 278.53 161.703C278.431 161.292 277.802 161.059 277.576 161.416" fill="#3F3D56"/>
<path d="M283.107 153.348C282.107 153.118 281.075 153.053 280.054 153.156C279.828 153.15 279.604 153.2 279.403 153.304C279.209 153.448 279.068 153.652 279.002 153.885C278.787 154.577 278.84 155.326 279.151 155.981C279.462 156.636 280.009 157.15 280.682 157.42C281.048 157.505 281.4 157.646 281.723 157.839C282.586 158.509 282.036 159.879 282.199 160.959C282.383 162.173 283.558 163.192 283.342 164.4C283.173 165.353 282.156 166.106 282.32 167.06C282.491 168.058 283.758 168.358 284.767 168.438C285.352 168.54 285.954 168.471 286.501 168.239C287.049 167.864 287.439 167.3 287.595 166.654C288.008 165.424 288.182 164.126 288.107 162.83C288.102 162.24 287.954 161.661 287.676 161.142C287.372 160.73 287.035 160.344 286.668 159.988C284.734 157.737 286.77 154.381 283.107 153.348Z" fill="#3F3D56"/>
<path opacity="0.8" d="M537.45 329.63C537.45 329.63 389.31 244.578 325.533 260.693C325.533 260.693 190.372 275.241 174.708 307.248C174.708 307.248 131.743 172.955 116.079 168.478" stroke="#6C63FF" stroke-width="2" stroke-miterlimit="10"/>
<path opacity="0.8" d="M174.708 307.248C199.547 240.997 423.324 167.583 423.324 167.583C391.547 175.641 325.533 260.693 325.533 260.693C325.533 260.693 185.897 159.078 116.079 168.478C116.079 168.478 423.548 178.55 537.45 329.63" stroke="#6C63FF" stroke-width="2" stroke-miterlimit="10"/>
<path d="M116.079 174.969C119.663 174.969 122.568 172.063 122.568 168.478C122.568 164.894 119.663 161.988 116.079 161.988C112.495 161.988 109.589 164.894 109.589 168.478C109.589 172.063 112.495 174.969 116.079 174.969Z" fill="#F6C13F"/>
<path d="M174.708 313.739C178.292 313.739 181.198 310.833 181.198 307.248C181.198 303.663 178.292 300.757 174.708 300.757C171.124 300.757 168.219 303.663 168.219 307.248C168.219 310.833 171.124 313.739 174.708 313.739Z" fill="#F6C13F"/>
<path d="M423.324 174.074C426.908 174.074 429.813 171.168 429.813 167.583C429.813 163.998 426.908 161.092 423.324 161.092C419.74 161.092 416.834 163.998 416.834 167.583C416.834 171.168 419.74 174.074 423.324 174.074Z" fill="#F6C13F"/>
<path d="M537.45 336.121C541.034 336.121 543.939 333.215 543.939 329.63C543.939 326.045 541.034 323.139 537.45 323.139C533.866 323.139 530.96 326.045 530.96 329.63C530.96 333.215 533.866 336.121 537.45 336.121Z" fill="#F6C13F"/>
<path d="M325.533 267.184C329.118 267.184 332.023 264.278 332.023 260.693C332.023 257.108 329.118 254.202 325.533 254.202C321.949 254.202 319.044 257.108 319.044 260.693C319.044 264.278 321.949 267.184 325.533 267.184Z" fill="#F6C13F"/>
</g>
<defs>
<clipPath id="clip0_2202_865">
<rect width="638" height="474" fill="white"/>
</clipPath>
</defs>
</svg>
