<svg id="Layer_1" data-name="Layer 1" xmlns="http://www.w3.org/2000/svg" xmlns:xlink="http://www.w3.org/1999/xlink" viewBox="0 0 786.03 977.11"><defs><style>.cls-1{fill:url(#linear-gradient);}.cls-2{fill:url(#linear-gradient-2);}.cls-3{fill:url(#linear-gradient-3);}.cls-4{fill:url(#linear-gradient-4);}.cls-5{fill:url(#linear-gradient-5);}.cls-6{fill:url(#linear-gradient-6);}.cls-7{fill:url(#linear-gradient-7);}.cls-8{fill:#4c883e;}.cls-9{fill:url(#linear-gradient-8);}.cls-10{fill:url(#linear-gradient-9);}.cls-11{font-size:130px;fill:#8dc63f;font-family:Futura-BoldOblique, Futura;font-weight:700;font-style:oblique;}</style><linearGradient id="linear-gradient" x1="600.85" y1="371.31" x2="660.2" y2="673.19" gradientUnits="userSpaceOnUse"><stop offset="0" stop-color="#a9d15a"/><stop offset="1" stop-color="#4cbc8f"/></linearGradient><linearGradient id="linear-gradient-2" x1="435.81" y1="446.51" x2="425.15" y2="692.76" xlink:href="#linear-gradient"/><linearGradient id="linear-gradient-3" x1="531.46" y1="665.17" x2="528.65" y2="730.07" xlink:href="#linear-gradient"/><linearGradient id="linear-gradient-4" x1="357.06" y1="533.41" x2="483.51" y2="95.36" gradientUnits="userSpaceOnUse"><stop offset="0.26" stop-color="#a9d15a"/><stop offset="1" stop-color="#4cbc8f"/></linearGradient><linearGradient id="linear-gradient-5" x1="159.82" y1="572.77" x2="430.74" y2="284.22" xlink:href="#linear-gradient"/><linearGradient id="linear-gradient-6" x1="679.48" y1="514.82" x2="930.84" y2="514.82" xlink:href="#linear-gradient"/><linearGradient id="linear-gradient-7" x1="679.51" y1="444.53" x2="842.64" y2="444.53" xlink:href="#linear-gradient"/><linearGradient id="linear-gradient-8" x1="441.1" y1="933.76" x2="441.31" y2="594.17" xlink:href="#linear-gradient"/><linearGradient id="linear-gradient-9" x1="589.86" y1="688.77" x2="420.02" y2="886.76" gradientUnits="userSpaceOnUse"><stop offset="0.3" stop-color="#a9d15a"/><stop offset="1" stop-color="#4cbc8f"/></linearGradient></defs><path class="cls-1" d="M700.17,607.54c-36.85,31.51-92.94,27.33-123.52,36.5-30.21,9.06-33.28,52.12-33.28,52.12l-4.48.88s-.58-40.89,37.14-79.21c19-19.31,34.42-33.21,53.87-52.08,26.73-25.92,54.48-54,63.31-110.53-.43,2.41-12.38,64.85-116.1,142.27-18.52,13.82-30.35,29.44-34.58,45.45-9.27-21.25-15.14-46.07-15.82-68.12s2.6-44.61,12.75-64.2c12-23.25,32.88-40.74,54.74-55.18s45.31-26.53,66-42.55,39-36.88,45.63-62.23c20.08,41.61,37.93,85.42,40.8,131.53S735.28,577.51,700.17,607.54Z" transform="translate(-144.81 -101.5)"/><path class="cls-2" d="M524.1,697l-3.65-.16s-7.62-33.74-32.63-37.27c-25.33-3.58-69.25,6.48-102.23-14C354.16,626,337,588.76,333.68,551.89s5.58-73.72,16.47-109.09c8.28,19.28,25.29,33.59,43.63,43.79s38.38,17,57.43,25.75,37.65,20.15,50,37.12c10.39,14.29,15.71,31.77,17.83,49.31s.45,37.91-4.33,55.86c-5.28-12.18-16.54-23.12-32.86-31.84C390.37,574,373.39,526,372.76,524.09c13.8,43.71,39.16,62.61,63.45,79.92,17.68,12.6,31.56,21.76,48.94,34.77C519.64,664.58,524.1,697,524.1,697Z" transform="translate(-144.81 -101.5)"/><path class="cls-3" d="M560.09,672.11a217.78,217.78,0,0,1,22.67,1.21,163.73,163.73,0,0,1,22.56,3.88,91.27,91.27,0,0,1,11.13,3.51,55.57,55.57,0,0,1,5.47,2.49,34.86,34.86,0,0,1,5.31,3.39,23.27,23.27,0,0,1,2.5,2.31,15.74,15.74,0,0,1,2.2,3,12.73,12.73,0,0,1,1.4,3.9,11.62,11.62,0,0,1-.11,4.36,13.19,13.19,0,0,1-1.5,3.82,18.2,18.2,0,0,1-2.2,3,28.41,28.41,0,0,1-5.06,4.33,47,47,0,0,1-5.36,3.17c-1.8.93-3.63,1.76-5.47,2.52a108.08,108.08,0,0,1-11.13,3.89q-2.81.82-5.62,1.55c-1.88.48-3.76.92-5.65,1.34q-5.65,1.25-11.35,2.18c-7.59,1.25-15.21,2.14-22.84,2.76-3.82.31-7.63.54-11.45.72s-7.65.27-11.47.32-7.64,0-11.46-.06-7.64-.23-11.46-.45-7.63-.49-11.45-.85-7.62-.78-11.42-1.29S480.73,726,477,725.3c-1.89-.34-3.79-.71-5.67-1.1s-3.77-.82-5.65-1.27c-3.76-.91-7.51-1.94-11.23-3.14a98.09,98.09,0,0,1-11-4.27,56.7,56.7,0,0,1-5.39-2.83c-.44-.27-.89-.53-1.33-.82l-.65-.43-.66-.45c-.43-.29-.86-.63-1.29-.94l-.64-.51c-.21-.17-.42-.34-.63-.53a23.74,23.74,0,0,1-2.43-2.39,16.85,16.85,0,0,1-2.13-3,12.75,12.75,0,0,1-1.4-3.8,11,11,0,0,1,0-4.25,11.46,11.46,0,0,1,.58-2c.13-.31.26-.62.41-.91l.22-.44.24-.42a14.78,14.78,0,0,1,2.2-2.88,25.17,25.17,0,0,1,5.09-4c.88-.55,1.78-1,2.67-1.51s1.8-.9,2.71-1.3q2.73-1.2,5.5-2.14a127.21,127.21,0,0,1,22.4-5.12,195.85,195.85,0,0,1,22.64-1.92c-7.41,1.47-14.77,3.08-22,5-3.61,1-7.19,2-10.71,3.22-1.75.61-3.5,1.21-5.22,1.88s-3.41,1.36-5.07,2.12-3.28,1.54-4.83,2.41a42,42,0,0,0-4.41,2.8,20.11,20.11,0,0,0-3.51,3.25,8.81,8.81,0,0,0-1.08,1.69l-.1.21-.08.2a3,3,0,0,0-.13.39,3.43,3.43,0,0,0-.14.74c0,.11,0,.23,0,.34v.17a.47.47,0,0,0,0,.17,3.05,3.05,0,0,0,.13.67,5.52,5.52,0,0,0,.68,1.42,8.51,8.51,0,0,0,1.27,1.5,15.38,15.38,0,0,0,1.7,1.45l.48.35.49.34c.34.22.67.45,1,.66l.53.32.55.31c.36.21.74.4,1.12.6,1.51.78,3.1,1.48,4.74,2.14a96,96,0,0,0,10.21,3.33c1.75.47,3.51.92,5.29,1.33s3.56.78,5.36,1.15c7.19,1.42,14.5,2.45,21.84,3.25s14.73,1.32,22.13,1.64q5.55.25,11.12.33t11.12,0q5.57-.06,11.11-.27c3.71-.14,7.4-.34,11.1-.59q11.07-.74,22-2.23a206,206,0,0,0,21.59-4.07c3.52-.88,7-1.9,10.33-3.1,1.68-.59,3.32-1.24,4.89-2,.8-.36,1.56-.73,2.32-1.12s1.49-.79,2.19-1.22a20.87,20.87,0,0,0,3.69-2.76,7.14,7.14,0,0,0,1.93-2.82,3.56,3.56,0,0,0,.16-1.25,4.33,4.33,0,0,0-.4-1.42,10.85,10.85,0,0,0-2.55-3.27c-.58-.53-1.22-1-1.89-1.55s-1.37-1-2.1-1.44-1.49-.91-2.26-1.33-1.57-.84-2.37-1.25a94,94,0,0,0-10.08-4.19c-3.47-1.25-7-2.33-10.6-3.34s-7.22-1.91-10.87-2.76C574.94,674.76,567.54,673.38,560.09,672.11Z" transform="translate(-144.81 -101.5)"/><path class="cls-4" d="M667.37,215.7l-88.16,78.39c-13.22,11.74-34,2.35-34-15.33V252.55l-.07-.08C384.31,249.65,252.46,379.78,252.44,540l0,0h-103a.11.11,0,0,1-.11-.11c.06-215.69,175-390.58,390.69-390.58,1.73,0,3.46,0,5.19.12V122c0-17.68,20.78-27,34-15.34l88.16,78.51A20.42,20.42,0,0,1,667.37,215.7Z" transform="translate(-144.81 -101.5)"/><path class="cls-5" d="M545.12,252.46C413.67,250.21,301.62,336.69,265,455.84A286.3,286.3,0,0,0,252.42,540v0h-103a.12.12,0,0,1-.14-.14C305.61,217.63,545.12,252.46,545.12,252.46Z" transform="translate(-144.81 -101.5)"/><path class="cls-6" d="M895.72,790.49l-112,37.21a20.41,20.41,0,0,1-26.46-15.21l-23.74-115.6c-3.58-17.31,15-30.66,30.17-21.88l22.75,13.1A284.87,284.87,0,0,0,827.6,540c0-107.94-59.84-202.27-148.12-251.6L734.2,201a.1.1,0,0,1,.14,0c117.41,67.39,196.5,194,196.5,339.08a388.6,388.6,0,0,1-54.9,199.79l23.62,13.61A20.4,20.4,0,0,1,895.72,790.49Z" transform="translate(-144.81 -101.5)"/><path class="cls-7" d="M786.41,688.1a287,287,0,0,0-37-345,289.7,289.7,0,0,0-69.9-54.68L734.18,201S938.38,480,786.41,688.1Z" transform="translate(-144.81 -101.5)"/><path class="cls-8" d="M288.55,679.34" transform="translate(-144.81 -101.5)"/><path class="cls-9" d="M737.54,877.06a.11.11,0,0,1,0,.15A389.32,389.32,0,0,1,540,930.69c-146.38,0-274-80.49-340.86-199.67l-23.63,13.6c-15.31,8.82-33.85-4.58-30.28-21.89l23.86-115.6a20.41,20.41,0,0,1,26.46-15.2l112,37.21c16.69,5.56,19,28.19,3.71,37.09l-22.75,13.11C337.63,767.74,432,827.58,540,827.58a286.57,286.57,0,0,0,148.19-41.14.05.05,0,0,1,.08,0Z" transform="translate(-144.81 -101.5)"/><path class="cls-10" d="M737.55,877.06C338.19,905.7,289.9,685.94,288.6,679.5,337.71,767.81,432,827.58,540,827.58A287,287,0,0,0,688.2,786.45c0-.05,0,0,.1,0Z" transform="translate(-144.81 -101.5)"/><text x="-144.81" y="-101.5"/><text class="cls-11" transform="translate(55.83 942.79)">GREENIFY</text></svg>