<svg width="739" height="943" viewBox="0 0 739 943" fill="none" xmlns="http://www.w3.org/2000/svg">
<path d="M-25.0823 468.91C-25.0823 468.91 -107.5 433.006 -150.616 529.674C-193.731 626.341 -238.194 851.733 -105.586 892.599C27.0168 933.463 -25.0823 468.91 -25.0823 468.91Z" fill="#F6B74C"/>
<path d="M336.751 713.405C300.726 684.267 263.748 647.449 238.756 621.367C237.231 619.765 235.751 618.22 234.341 616.71C218.285 599.825 208.204 588.451 208.204 588.451L232.851 496.465C232.851 496.465 316.617 569.381 371.493 624.76C373.634 626.903 375.721 629.026 377.764 631.128C379.097 632.473 380.409 633.842 381.68 635.16C381.711 635.193 381.732 635.209 381.758 635.241C383.213 636.769 384.642 638.279 386.056 639.736C401.718 656.315 413.278 670.175 416.941 678.255C432.923 713.708 399.554 764.221 336.751 713.405Z" fill="#00A580"/>
<path d="M381.762 635.246L342.872 655.591L371.493 624.76C373.635 626.903 375.722 629.026 377.765 631.127C379.098 632.472 380.41 633.841 381.68 635.159C381.711 635.193 381.731 635.213 381.762 635.246Z" fill="#3B1034"/>
<path d="M238.757 621.361C237.231 619.764 235.755 618.221 234.334 616.717C236.464 598.424 241.536 553.147 241.669 535.838C241.688 534.475 242.798 533.383 244.164 533.388C245.53 533.398 246.618 534.517 246.598 535.88C246.454 555.177 240.49 606.797 238.757 621.361Z" fill="#008661"/>
<path d="M311.318 678.292C311.318 678.292 484.756 572.294 517.699 551.665C568.736 519.707 604.819 557.433 546.386 613.256C461.524 694.322 439.991 728.305 391.393 735.135C382.212 736.425 372.946 733.436 366.042 727.259L311.318 678.292Z" fill="#00A580"/>
<path d="M535.714 554.357C533.221 549.092 532.433 543.261 534.393 535.796C536.981 525.952 542.439 511.453 548.349 504.605C557.215 494.312 584.954 465.466 596.114 465.203C607.269 464.938 585.235 491.699 580.82 497.274C576.404 502.853 575.444 508.286 575.444 508.286C575.444 508.286 630.666 450.855 639.534 451.647C648.401 452.444 620.19 488.307 613.157 497.125C613.157 497.125 657.125 456.185 662.584 458.495C673.55 463.128 626.015 510.01 626.015 510.01C626.015 510.01 664.724 477.476 669.778 484.069C675.132 491.053 633.582 525.794 633.582 525.794C633.582 525.794 661.848 508.313 668.775 511.973C675.698 515.628 619.112 556.962 609.664 562.261C600.218 567.555 571.229 586.311 556.936 580.577C548.028 576.997 539.57 562.503 535.714 554.357Z" fill="#FFB890"/>
<path d="M551.456 558.278C578.369 563.389 590.064 532.74 590.177 532.43C590.631 531.203 590.005 529.837 588.78 529.379C587.544 528.922 586.183 529.55 585.725 530.776C585.311 531.888 575.296 557.969 552.34 553.613C552.326 553.609 552.308 553.619 552.311 553.61C551.023 553.365 549.78 554.21 549.535 555.498C549.294 556.792 550.191 558.005 551.456 558.278Z" fill="#FF8E69"/>
<path d="M624.783 538.509C626.004 538.741 627.209 537.986 627.525 536.767C627.851 535.496 627.085 534.203 625.814 533.877C602.238 527.831 595.036 506.105 594.964 505.885C594.568 504.636 593.23 503.942 591.979 504.348C590.73 504.745 590.04 506.085 590.442 507.335C590.761 508.333 598.542 531.788 624.631 538.478C624.684 538.487 624.731 538.5 624.783 538.509Z" fill="#FF8E69"/>
<path d="M-46.334 460.232C-46.334 460.232 -118.078 411.722 -48.7523 362.658C20.5726 313.598 135.187 374.452 149.949 395.773C182.44 442.698 152.805 464.504 152.805 464.504C152.805 464.504 71.7344 513.58 -46.334 460.232Z" fill="#00A580"/>
<path d="M-32.4228 399.377C-33.3673 399.124 -34.147 398.369 -34.3786 397.344C-34.7153 395.871 -33.7958 394.403 -32.3237 394.07C-29.8884 393.51 27.9644 380.587 79.989 399.591C81.4079 400.111 82.1352 401.68 81.6192 403.1C81.0985 404.52 79.5292 405.252 78.1102 404.732C27.6131 386.293 -30.5201 399.271 -31.1011 399.401C-31.5549 399.505 -32.002 399.49 -32.4228 399.377Z" fill="#008661"/>
<path d="M46.8566 396.968C46.0852 396.762 45.4087 396.22 45.0592 395.429C39.4358 382.678 14.3208 371.081 14.0668 370.963C12.692 370.334 12.0889 368.713 12.718 367.338C13.3471 365.963 14.9718 365.36 16.3419 365.988C17.4535 366.496 43.603 378.571 50.0655 393.221C50.6774 394.603 50.0489 396.22 48.6684 396.827C48.0756 397.095 47.441 397.125 46.8566 396.968Z" fill="#008661"/>
<path d="M192.275 1054.6L-156.057 961.267C-149.055 931.862 -140.584 898.229 -132.384 866.408C-127.61 847.901 -122.929 830 -118.702 813.943C-108.359 774.691 -100.67 746.312 -100.67 746.312C-100.67 746.312 -98.9972 735.767 -96.6638 719.914C-94.8543 707.551 -92.6451 691.956 -90.5118 675.579C-89.0724 664.409 -87.6753 652.893 -86.4683 641.787C-85.9614 637.22 -85.5109 632.734 -85.0969 628.383C-83.8674 615.604 -83.0073 603.903 -82.7942 594.636C-81.7464 548.647 -90.5129 455.352 -56.8072 440.181C8.05054 409.42 52.7664 397.369 52.7664 397.369L126.063 414.763C126.063 414.763 235.549 468.964 239.654 515.382C240.745 527.615 238.365 566.329 234.194 617.728C234.111 618.543 234.04 619.366 233.97 620.189C233.875 621.477 233.756 622.764 233.672 624.07C233.631 624.445 233.598 624.852 233.567 625.245C233.495 626.078 233.414 626.883 233.358 627.71C233.306 628.333 233.246 628.969 233.2 629.608C231.569 649.012 229.742 669.948 227.753 691.773L227.749 691.787C225.355 718.116 222.755 745.733 220.107 773.422L220.103 773.436C208.514 893.926 195.757 1016.1 193.606 1042.79C193.281 1047.01 192.834 1050.93 192.275 1054.6Z" fill="#00A580"/>
<path d="M53.8013 847.584L-132.38 866.415C-127.605 847.903 -122.926 830.007 -118.697 813.945C-70.8507 823.332 53.8013 847.584 53.8013 847.584Z" fill="#008661"/>
<path d="M126.754 487.05C126.05 485.563 124.246 485.04 122.873 485.865C104.338 496.985 84.2058 498.063 62.8015 489.149C61.2997 488.526 59.598 489.379 59.1769 490.95C58.8273 492.255 59.4862 493.63 60.7362 494.145C83.6733 503.585 105.757 502.464 125.564 490.631C126.781 489.905 127.36 488.341 126.754 487.05Z" fill="#008661"/>
<path d="M-20.3487 706.426L38.0315 639.265L70.3125 717.645L15.677 781.173L-20.3487 706.426Z" fill="#008661"/>
<path d="M68.9167 717.862L127.303 650.696L159.584 729.077L104.942 792.608L68.9167 717.862Z" fill="#008661"/>
<path d="M220.123 773.421L220.119 773.435L193.383 804.505L157.948 730.979L157.356 729.763L159.053 727.806L215.74 662.607L227.763 691.776L227.759 691.79C225.366 718.114 222.768 745.726 220.123 773.421Z" fill="#008661"/>
<path d="M-37.7656 965.421C-39.1028 965.063 -39.9775 963.746 -39.7544 962.352C-39.5155 960.862 -38.1151 959.843 -36.6256 960.082C-35.5928 960.249 67.3239 976.205 110.715 943.983C111.928 943.085 113.639 943.338 114.542 944.547C115.44 945.76 115.187 947.472 113.977 948.376C68.7351 981.972 -33.1675 966.177 -37.4872 965.486C-37.5773 965.467 -37.6721 965.446 -37.7656 965.421Z" fill="#008661"/>
<path d="M-49.4488 933.973C-50.7532 933.624 -51.6299 932.351 -51.447 930.977C-51.2514 929.48 -49.8763 928.425 -48.3802 928.62C-48.0463 928.664 -14.5462 932.944 26.5007 928.021C64.1616 923.504 116.087 910.092 149.605 871.835C150.601 870.699 152.325 870.584 153.461 871.58C154.598 872.577 154.71 874.306 153.714 875.443C119.028 915.031 65.6716 928.847 27.0156 933.468C-14.6887 938.45 -48.758 934.088 -49.0966 934.043C-49.2172 934.025 -49.3366 934.003 -49.4488 933.973Z" fill="#008661"/>
<path d="M9.65103 816.062C11.1565 816.466 12.6974 815.54 13.0355 814.016C46.4482 663.641 47.687 477.986 47.693 475.962C47.7021 474.451 46.4783 473.221 44.9708 473.218C43.4598 473.209 42.231 474.429 42.2265 475.941C42.217 477.959 40.9849 663.085 7.69769 812.842C7.37658 814.265 8.23905 815.684 9.65103 816.062Z" fill="white"/>
<path d="M102.799 831.336C104.305 831.74 105.847 830.809 106.184 829.29C139.456 679.028 140.69 493.913 140.701 491.891C140.71 490.379 139.486 489.149 137.979 489.146C136.468 489.137 135.239 490.357 135.234 491.87C135.226 493.883 133.996 678.477 100.846 828.116C100.528 829.545 101.387 830.958 102.799 831.336Z" fill="white"/>
<path d="M81.2402 476.645C75.4707 475.099 69.5592 472.999 63.5102 470.346C38.0034 459.145 19.4387 442.29 18.6617 441.58C17.547 440.56 17.4695 438.829 18.4899 437.714C19.5103 436.599 21.2399 436.521 22.3546 437.542C22.5396 437.711 41.1242 454.567 65.8308 465.388C98.3988 479.654 125.678 477.228 146.908 458.178C148.031 457.165 149.759 457.262 150.771 458.385C151.778 459.508 151.686 461.237 150.562 462.25C131.881 479.006 108.166 483.86 81.2402 476.645Z" fill="#008661"/>
<path d="M99.8439 468.125C65.2543 464.957 39.3159 430.325 39.3159 430.325C49.4871 411.124 56.0586 386.973 58.9842 368.667C60.4663 359.414 60.9947 353.234 60.9947 353.234L140.466 409.208L134.93 442.977L133.575 451.231C133.575 451.231 128.769 470.777 99.8439 468.125Z" fill="#FFB890"/>
<path d="M134.931 442.977C91.0875 428.151 67.2529 386.042 59.7176 363.8C61.1997 354.547 60.9894 353.238 60.9894 353.238L140.46 409.212L134.931 442.977Z" fill="#3B1034"/>
<path d="M215.573 288.619C215.573 288.619 227.018 267.843 247.926 276.644C268.834 285.445 250.203 375.474 197.896 357.939L215.573 288.619Z" fill="#FF8E69"/>
<path d="M215.903 367.993C197.105 408.674 162.186 432.619 118.059 415.672C21.6769 378.638 43.4112 235.435 43.4112 235.435C55.1279 161.71 121.325 140.742 186.092 171.025C250.857 201.317 246.202 246.2 241.572 280.777C240.188 291.124 236.235 311.149 229.22 333.272C228.118 336.731 226.957 340.24 225.697 343.783C224.161 348.113 222.525 352.477 220.754 356.825C219.236 360.564 217.628 364.304 215.903 367.993Z" fill="#FFB890"/>
<path d="M145.935 392.742C149.729 393.994 154.86 394.652 160.561 392.545C161.65 392.145 162.204 390.935 161.805 389.846C161.399 388.76 160.191 388.2 159.107 388.601C149.736 392.061 142.212 386.29 141.898 386.041C140.987 385.326 139.667 385.483 138.953 386.39C138.239 387.296 138.387 388.614 139.292 389.333C139.49 389.491 141.99 391.439 145.935 392.742Z" fill="#FF8E69"/>
<path d="M175.53 230.917C175.53 230.917 192.513 239.483 205.897 236.026C218.263 232.833 220.925 232.473 225.172 234.017C232.121 236.546 230.965 260.925 230.965 260.925L243.706 275.222C243.706 275.222 247.255 243.499 241.856 231.595C236.457 219.691 212.369 206.895 190.906 216.66C169.442 226.428 175.53 230.917 175.53 230.917Z" fill="#3B1034"/>
<path d="M197.204 211.245C201.774 224.204 188.182 236.273 175.531 230.918C160.823 224.691 140.443 217.416 132.424 220.957C119.259 226.774 118.3 239.22 109.923 246.976C101.542 254.726 59.255 237.44 59.255 237.44L63.2245 207.533C63.2245 207.533 166.758 191.451 187.69 201.286C192.924 203.746 195.816 207.298 197.204 211.245Z" fill="#3B1034"/>
<path d="M52.2739 248.381C52.2739 248.381 34.5663 258.606 19.9874 254.965C5.40853 251.324 27.7776 225.891 27.7776 225.891C27.7776 225.891 2.80604 214.283 11.91 196.67C21.014 179.057 38.4626 183.733 38.4626 183.733C38.4626 183.733 32.9722 140.488 50.647 132.276C68.323 124.058 74.1826 147.56 74.1826 147.56C74.1826 147.56 92.6346 93.6018 129.788 99.1706C166.941 104.739 128.561 137.693 128.561 137.693C128.561 137.693 174.892 98.7238 205.205 114.992C235.517 131.261 189.856 154.116 189.856 154.116C189.856 154.116 249.754 131.316 269.266 153.463C288.778 175.61 240.249 183.079 240.249 183.079C240.249 183.079 285.204 200.639 278.288 225.27C271.373 249.901 237.995 234.691 237.995 234.691C237.995 234.691 103.453 198.425 52.2739 248.381Z" fill="#3B1034"/>
<path d="M230.965 260.925C230.965 260.925 228.178 275.273 233.064 286.513C235.591 292.323 236.735 298.64 236.005 304.936L235.112 312.607C235.112 312.607 246.949 283.019 242.894 270.097C240.646 265.118 236.054 262.75 230.965 260.925Z" fill="#3B1034"/>
<path d="M92.0254 265.911C91.1423 266.757 90.3885 267.793 89.7173 268.952C88.8822 270.422 88.1866 272.121 87.5946 273.937C83.682 285.903 83.7933 303.553 70.9447 302.712C56.0752 301.746 58.2415 270.639 58.7617 265.013C58.817 264.452 58.8492 264.145 58.8492 264.145C58.2715 262.616 57.5749 261.176 56.8206 259.821C51.393 250.211 42.3419 245.184 42.3419 245.184C65.9417 225.575 116.817 230.354 116.817 230.354C112.177 250.847 97.8999 260.276 92.0254 265.911Z" fill="#3B1034"/>
<path d="M124.852 270.647C123.986 270.194 123.237 269.492 122.725 268.578C121.332 266.074 122.228 262.915 124.731 261.521C125.58 261.046 133.298 256.928 142.283 258.519C151.684 260.181 156.878 264.304 157.44 264.771C159.646 266.6 159.953 269.866 158.124 272.072C156.308 274.268 153.066 274.587 150.861 272.793C150.716 272.679 147.07 269.903 140.477 268.737C135.023 267.772 129.832 270.557 129.78 270.583C128.196 271.462 126.346 271.428 124.852 270.647Z" fill="#3B1034"/>
<path d="M196.786 283.87C196.079 283.199 195.553 282.317 195.316 281.296C194.666 278.505 196.4 275.716 199.19 275.065C200.137 274.842 208.693 273.019 216.886 277.024C225.463 281.217 229.314 286.615 229.729 287.218C231.345 289.581 230.735 292.811 228.373 294.429C226.023 296.035 222.817 295.452 221.194 293.112C221.088 292.964 218.35 289.287 212.333 286.347C207.352 283.914 201.603 285.156 201.544 285.17C199.774 285.583 198.007 285.035 196.786 283.87Z" fill="#3B1034"/>
<path d="M123.888 350.992C123.888 350.992 162.769 362.513 185.768 363.437C185.768 363.437 181.442 390.802 147.82 381.537C120.007 373.874 123.888 350.992 123.888 350.992Z" fill="white"/>
<path d="M128.595 312.555C127.855 315.785 118.519 316.402 107.74 313.935C96.9608 311.468 88.8222 306.85 89.5566 303.623C90.297 300.393 99.6325 299.776 110.412 302.243C121.197 304.707 129.335 309.324 128.595 312.555Z" fill="#FF8E69"/>
<path d="M225.697 343.782C223.431 343.526 220.994 343.118 218.467 342.546C207.689 340.074 199.54 335.46 200.286 332.226C201.024 329.004 210.354 328.387 221.141 330.846C224.074 331.511 226.816 332.351 229.225 333.272C228.117 336.735 226.961 340.245 225.697 343.782Z" fill="#FF8E69"/>
<path d="M138.714 291.305C137.389 297.091 133.758 301.196 130.604 300.476C127.449 299.756 125.967 294.481 127.291 288.695C128.616 282.909 132.247 278.804 135.401 279.524C138.556 280.244 140.039 285.519 138.714 291.305Z" fill="#3B1034"/>
<path d="M209.386 309.013C208.062 314.799 204.431 318.904 201.276 318.184C198.122 317.464 196.639 312.189 197.964 306.403C199.289 300.617 202.919 296.512 206.074 297.232C209.224 297.95 210.707 303.225 209.386 309.013Z" fill="#3B1034"/>
<path d="M157.552 342.957C156.15 342.316 155.319 340.78 155.627 339.198C155.989 337.345 157.782 336.131 159.635 336.492C162.697 337.087 165.216 337.396 166.996 337.558C168.371 326.18 167.842 310.087 167.835 309.91C167.769 308.023 169.25 306.444 171.136 306.378C173.023 306.312 174.607 307.789 174.672 309.677C174.7 310.491 175.332 329.75 173.307 341.72C173.027 343.364 171.607 344.568 169.943 344.568C169.758 344.569 165.316 344.557 158.338 343.203C158.054 343.157 157.796 343.073 157.552 342.957Z" fill="#FF8E69"/>
<path d="M58.8519 264.135C58.8519 264.135 52.5235 241.28 30.1409 245.012C7.76431 248.742 5.06887 340.64 60.0198 335.668L58.8519 264.135Z" fill="#FFB890"/>
<path d="M42.7822 306.807C41.3189 306.134 40.4941 304.5 40.8925 302.882C46.7955 278.963 30.6825 264.048 30.5171 263.898C29.1178 262.631 29.0099 260.471 30.2736 259.065C31.5407 257.665 33.7007 257.552 35.1034 258.826C35.8945 259.539 54.3993 276.674 47.5293 304.52C47.0779 306.354 45.225 307.472 43.3915 307.021C43.1752 306.968 42.9733 306.898 42.7822 306.807Z" fill="#FF8E69"/>
<path d="M28.0265 286.325C26.986 285.85 26.209 284.86 26.0593 283.642C25.8245 281.769 27.1543 280.06 29.0264 279.825C30.276 279.669 41.4026 278.464 47.6071 284.353C48.9776 285.652 49.0338 287.818 47.7308 289.183C46.4313 290.555 44.2758 290.614 42.9005 289.313C39.6141 286.186 32.2077 286.317 29.8791 286.611C29.2214 286.69 28.5846 286.58 28.0265 286.325Z" fill="#FF8E69"/>
<path d="M117.208 336.946C109.169 333.623 102.578 327.682 98.4106 319.913C93.6391 311.014 92.6143 300.794 95.53 291.128C98.4456 281.462 104.946 273.509 113.838 268.733C122.734 263.958 132.951 262.931 142.614 265.846C152.285 268.763 160.225 275.262 164.997 284.16C169.769 293.054 170.793 303.279 167.877 312.945C164.962 322.611 158.461 330.564 149.569 335.34C140.678 340.116 130.456 341.142 120.794 338.227C119.575 337.856 118.378 337.424 117.208 336.946ZM144.68 270.796C143.633 270.365 142.567 269.984 141.472 269.656C132.825 267.048 123.684 267.968 115.725 272.237C107.77 276.512 101.95 283.625 99.3418 292.275C96.7333 300.925 97.6507 310.069 101.918 318.025C106.189 325.987 113.289 331.805 121.947 334.41C130.594 337.018 139.735 336.099 147.689 331.828C155.649 327.555 161.464 320.44 164.073 311.79C166.68 303.145 165.764 293.996 161.496 286.04C157.767 279.085 151.872 273.766 144.68 270.796Z" fill="white"/>
<path d="M198.955 349.64C191.353 346.5 185.126 340.882 181.187 333.535C176.675 325.127 175.712 315.46 178.466 306.322C181.221 297.184 187.37 289.663 195.776 285.148C204.181 280.633 213.842 279.662 222.98 282.421C241.822 288.107 252.55 308.081 246.864 326.945C241.178 345.809 221.208 356.53 202.351 350.846C201.191 350.5 200.056 350.095 198.955 349.64ZM224.805 287.297C223.84 286.898 222.848 286.542 221.828 286.234C213.709 283.787 205.126 284.646 197.656 288.66C190.188 292.669 184.724 299.351 182.277 307.473C179.83 315.595 180.686 324.182 184.698 331.653C188.704 339.123 195.383 344.587 203.502 347.033C220.259 352.085 238.001 342.557 243.058 325.795C247.795 310.06 239.684 293.449 224.805 287.297Z" fill="white"/>
<path d="M166.46 306.324C165.873 306.082 165.373 305.632 165.081 305.017C164.456 303.702 164.991 302.136 166.301 301.494C166.636 301.328 174.577 297.576 182.161 304.466C183.246 305.448 183.327 307.129 182.345 308.214C181.362 309.3 179.682 309.381 178.597 308.398C173.729 303.976 168.813 306.183 168.607 306.278C167.902 306.61 167.127 306.603 166.46 306.324Z" fill="white"/>
<path d="M103.669 282.897C102.663 283.96 100.982 284.006 99.9184 282.999C99.8084 282.905 94.9707 278.405 87.5905 273.931C79.9178 269.259 69.484 264.623 58.7635 265.004C58.8188 264.442 58.851 264.135 58.851 264.135C58.2733 262.607 57.5768 261.167 56.8224 259.812C69.2091 258.805 81.0542 263.783 89.7178 268.947C97.7957 273.753 103.108 278.726 103.558 279.142C104.621 280.149 104.676 281.833 103.669 282.897Z" fill="white"/>
<path d="M-148.485 929.454C-150.799 928.834 -152.834 927.246 -153.943 924.913C-155.953 920.69 -154.157 915.632 -149.935 913.62C55.2908 815.879 143.101 701.405 180.633 622.581C220.865 538.075 213.314 476.357 213.233 475.743C212.622 471.103 215.882 466.848 220.522 466.232C225.161 465.62 229.418 468.881 230.029 473.521C230.386 476.229 238.296 540.87 195.929 629.864C171.229 681.747 134.404 731.223 86.4764 776.918C26.8616 833.763 -50.2314 884.902 -142.653 928.916C-144.545 929.823 -146.605 929.957 -148.485 929.454Z" fill="#F6B74C"/>
<path d="M45.9609 794.746L86.8569 800.28L77.9862 854.013L40.4458 843.699C40.4458 843.699 32.208 822.452 45.9609 794.746Z" fill="#FFB890"/>
<path d="M86.8567 800.28C86.8567 800.28 119.769 784.275 133.523 786.205C151.233 788.69 152.756 811.04 152.756 811.04L86.8567 800.28Z" fill="#FF8E69"/>
<path d="M118.783 848.303L128.701 811.287C132.337 797.719 146.329 789.637 159.892 793.272L191.226 801.668C204.79 805.302 212.866 819.297 209.23 832.865L199.312 869.88C195.677 883.449 181.685 891.531 168.122 887.896L136.787 879.5C123.224 875.866 115.147 861.871 118.783 848.303ZM156.507 805.905C149.91 804.137 143.099 808.067 141.33 814.671L131.411 851.686C129.643 858.286 133.57 865.098 140.172 866.867L171.507 875.263C178.104 877.031 184.914 873.101 186.684 866.497L196.602 829.481C198.371 822.882 194.443 816.07 187.841 814.301L156.507 805.905Z" fill="#E8311B"/>
<path d="M134.851 901.445C163.008 918.86 193.631 927.065 226.723 926.062L260.433 800.255C230.379 789.921 199.755 781.715 168.561 775.638L134.851 901.445Z" fill="#FF6129"/>
<path d="M188.497 877.554C188.497 877.554 249.558 838.016 232.558 819.735C215.547 801.456 188.497 877.554 188.497 877.554Z" fill="#E8311B"/>
<path d="M171.049 902.145C171.826 902.479 172.755 902.247 173.281 901.54L212.95 848.159C213.568 847.332 213.395 846.162 212.563 845.544C211.737 844.926 210.568 845.099 209.949 845.931L170.279 899.312C169.662 900.14 169.835 901.309 170.666 901.928C170.788 902.015 170.918 902.09 171.049 902.145Z" fill="#BE2D08"/>
<path d="M189.449 873.924C189.449 873.924 211.094 804.459 186.33 801.297C161.57 798.137 189.449 873.924 189.449 873.924Z" fill="#E8311B"/>
<path d="M189.038 877.293C189.294 877.402 189.576 877.453 189.871 877.436C190.898 877.381 191.692 876.495 191.632 875.467L189.443 835.684C189.389 834.652 188.503 833.863 187.476 833.918C186.444 833.973 185.655 834.859 185.711 835.887L187.899 875.67C187.942 876.408 188.404 877.023 189.038 877.293Z" fill="#BE2D08"/>
<path d="M74.0271 854.386C74.0271 854.386 118.525 888.537 140.37 871.997C168.563 850.657 173.928 818.853 151.362 798.454C137.497 785.921 100.012 803.283 79.6068 798.908C79.6068 798.908 56.1206 839.918 74.0271 854.386Z" fill="#FFB890"/>
<path d="M-172.003 716.165C-172.003 716.165 -219.699 708.333 -243.897 752.019C-268.096 795.705 -197.275 820.807 -125.857 827.968C-54.438 835.129 50.6813 849.148 50.6813 849.148C50.5235 832.794 54.2078 813.433 63.3444 795.699C63.3444 795.699 0.331953 779.833 -47.1226 755.818C-72.3701 743.032 -135.261 720.822 -172.003 716.165Z" fill="#00A580"/>
<path d="M377.31 924.472C345.901 956.992 298.72 996.235 246.761 1034.48C245.988 1035.04 245.042 1035.32 244.087 1035.25C240.322 1035 238.949 1030.17 242.004 1027.95C367.022 937.115 433.652 862.73 438.86 808.36C439.052 806.332 440.668 804.639 442.707 804.624C445.041 804.608 446.817 806.603 446.606 808.867C443.61 841.07 420.295 879.965 377.31 924.472Z" fill="#00A580"/>
<path d="M412.324 881.604C412.324 881.604 433.161 906.472 475.447 868.109C475.447 868.109 432.76 839.09 412.324 881.604Z" fill="#00CCA1"/>
<path d="M391.545 902.505C391.545 902.505 417.533 883.074 381.604 838.712C381.604 838.712 350.255 879.74 391.545 902.505Z" fill="#00CCA1"/>
<path d="M437.044 832.152C437.044 832.152 468.018 822.5 448.933 768.69C448.933 768.69 405.706 796.916 437.044 832.152Z" fill="#00CCA1"/>
<path d="M351.04 945.856C351.04 945.856 362.237 976.313 415.001 954.518C415.001 954.518 384.643 912.761 351.04 945.856Z" fill="#00CCA1"/>
<path d="M326.649 963.945C326.649 963.945 355.604 949.301 327.886 899.393C327.886 899.393 289.918 934.377 326.649 963.945Z" fill="#00CCA1"/>
<path d="M332.049 405.881C332.049 405.881 337.725 311.799 369.174 319.338C400.623 326.877 332.049 405.881 332.049 405.881Z" fill="#00CCA1"/>
<path d="M315.431 441.232C314.562 440.568 314.231 439.371 314.69 438.331L349.611 359.565C350.154 358.342 351.584 357.792 352.803 358.33C354.027 358.868 354.574 360.303 354.037 361.523L319.116 440.289C318.573 441.512 317.143 442.061 315.925 441.519C315.746 441.441 315.58 441.347 315.431 441.232Z" fill="#00A580"/>
<path d="M335.534 402.489C335.534 402.489 400.073 333.81 419.416 359.731C438.759 385.653 335.534 402.489 335.534 402.489Z" fill="#00CCA1"/>
<path d="M331.998 405.101C331.715 404.884 331.471 404.598 331.303 404.253C330.712 403.056 331.201 401.604 332.403 401.008L378.657 378.13C379.857 377.54 381.304 378.033 381.9 379.23C382.492 380.426 382.002 381.879 380.8 382.475L334.546 405.352C333.693 405.77 332.71 405.642 331.998 405.101Z" fill="#00A580"/>
<path d="M338.206 225.845C341.809 229.868 347.992 230.206 352.012 226.592C356.033 222.977 356.373 216.787 352.771 212.763C349.169 208.74 342.986 208.402 338.965 212.017C334.946 215.627 334.605 221.817 338.206 225.845Z" fill="#FF6129"/>
<path d="M321.041 787.8C324.644 791.823 330.827 792.161 334.847 788.546C338.868 784.931 339.208 778.741 335.606 774.718C332.004 770.695 325.82 770.357 321.8 773.972C317.776 777.581 317.44 783.772 321.041 787.8Z" fill="#FF6129"/>
<path d="M537.468 738.438C541.07 742.461 547.255 742.795 551.274 739.184C555.294 735.569 555.635 729.379 552.034 725.352C548.431 721.328 542.248 720.99 538.228 724.605C534.203 728.219 533.866 734.415 537.468 738.438Z" fill="#008661"/>
<path d="M398.751 480.782C397.796 486.106 401.327 491.198 406.64 492.15C411.956 493.103 417.039 489.563 417.996 484.234C418.951 478.911 415.42 473.819 410.108 472.867C404.791 471.913 399.708 475.454 398.751 480.782Z" fill="#FF6129"/>
<path d="M490.877 414.892C489.921 420.215 493.453 425.307 498.765 426.259C504.077 427.212 509.16 423.671 510.121 418.344C511.077 413.02 507.545 407.928 502.233 406.976C496.916 406.023 491.833 409.564 490.877 414.892Z" fill="#008661"/>
</svg>
