<svg width="373" height="381" viewBox="0 0 373 381" fill="none" xmlns="http://www.w3.org/2000/svg">
<path d="M195.328 99.7571C145.789 88.1836 108.77 65.358 112.644 48.7746C116.518 32.1913 159.819 28.13 209.358 39.7035C258.898 51.277 295.917 74.1026 292.043 90.6859C288.169 107.269 244.868 111.331 195.328 99.7571Z" fill="#F6B74C"/>
<path d="M264.03 195.74C264.03 195.74 273.27 175.866 299.846 184.009C299.846 184.009 286.292 211.976 264.03 195.74Z" fill="#00A580"/>
<path d="M284.707 156.822L255.504 222.211C254.325 222.035 253.344 221.596 252.604 220.916L281.807 155.527C282.165 154.726 283.103 154.367 283.905 154.724C284.707 155.082 285.065 156.021 284.707 156.822Z" fill="#00A580"/>
<path d="M275.758 173.995C275.758 173.995 254.689 181.408 249.956 146.522C249.956 146.522 281.908 153.748 275.758 173.995Z" fill="#00CCA1"/>
<path d="M264.849 195.675C264.849 195.675 242.982 200.228 242.919 165.023C242.919 165.023 273.63 176.423 264.849 195.675Z" fill="#00CCA1"/>
<path d="M264.355 198.495C264.355 198.495 274.042 178.37 302.025 199.732C302.025 199.732 274.295 217.175 264.355 198.495Z" fill="#00CCA1"/>
<path d="M274.33 172.121C274.33 172.121 283.522 151.766 312.019 172.436C312.019 172.436 284.724 190.551 274.33 172.121Z" fill="#00CCA1"/>
<path d="M282.071 161.003C282.071 161.003 266.378 145.11 295.91 125.947C295.91 125.947 303.007 157.928 282.071 161.003Z" fill="#00CCA1"/>
<path d="M220.961 255.307L226.603 308.687C226.603 308.687 227.855 310.093 229.653 312.117C245.396 315.72 265.508 317.994 272.724 308.687C273.443 307.762 274.117 306.606 274.757 305.247C285.355 282.804 286.212 204.889 286.212 204.889L267.174 199.031L236.609 189.622L220.961 255.307Z" fill="#F6B74C"/>
<path d="M220.962 255.307L226.604 308.687C226.604 308.687 227.857 310.093 229.655 312.117C245.398 315.72 265.509 317.994 272.725 308.687C273.444 307.762 274.119 306.606 274.758 305.247C267.388 304.376 261.278 300.623 257.584 294.009C251.311 282.766 257.624 220.969 257.624 220.969C263.573 215.125 266.122 205.24 267.176 199.031L236.611 189.622L220.962 255.307Z" fill="#E9981A"/>
<path d="M164.088 50.5787C164.088 50.5787 141.399 71.2835 152.795 126.461C154.519 134.812 161.857 140.819 170.384 140.819H230.542C240.48 140.819 248.804 133.402 250.064 123.546C250.947 116.655 252.883 109.277 251.291 93.8671C246.7 49.4167 222.415 39.3698 222.415 39.3698C206.654 36.5334 173.397 36.6432 164.088 50.5787Z" fill="#3B1034"/>
<path d="M62.035 183.088C62.035 183.088 62.035 183.088 62.035 183.093C62.5957 188.038 66.2492 192.175 71.2283 193.31C74.4925 194.054 77.9302 194.836 77.9784 194.846C78.0304 194.851 78.0709 194.855 78.0998 194.861C78.1576 194.867 78.1826 194.871 78.1826 194.871C83.7534 195.769 89.5823 196.672 95.3708 197.501C96.8391 197.709 98.3055 197.917 99.7642 198.114C105.239 198.858 110.619 199.509 115.657 199.996C119.877 200.407 123.86 200.696 127.462 200.833C134.362 201.089 138.823 201.17 138.823 201.17C138.823 201.17 148.575 188.568 144.708 174.041C144.708 174.041 141.941 170.033 138.638 170.164C128.735 170.539 111.534 168.262 94.8948 167.373C92.9159 167.262 90.9408 167.175 88.9907 167.117C84.1484 166.963 79.4351 166.977 75.0571 167.258C74.8259 167.273 74.5928 167.293 74.3615 167.316C68.23 167.934 62.8809 171.588 62.2334 177.75C62.2277 177.798 62.2238 177.846 62.218 177.894C62.0966 179.112 62.0157 180.207 61.9675 181.207C61.9386 181.843 61.9618 182.469 62.035 183.088Z" fill="#FFB890"/>
<path d="M43.2041 112.69C50.3838 136.836 54.415 163.283 61.1977 181.211C61.4444 181.858 61.7199 182.485 62.034 183.09C62.034 183.09 62.0282 183.096 62.034 183.096C66.649 192.164 77.9042 195.919 87.1399 191.077L91.9919 188.537L96.5684 186.138C96.5684 186.138 95.0615 181.209 88.9879 167.119C87.0513 162.63 84.6523 157.207 81.6829 150.717C79.9255 146.869 77.3512 142.152 74.4454 136.915V136.909C68.3948 125.993 60.9164 112.797 56.4074 100.448C49.7306 82.1651 29.8447 67.7594 43.2041 112.69Z" fill="#FFB890"/>
<path d="M74.87 159.182C75.8604 160.78 78.9474 165.749 82.2809 171.942L91.2334 189.233L95.3686 197.499C96.8369 197.707 98.3033 197.915 99.762 198.112C105.236 198.856 110.616 199.507 115.655 199.995L94.8946 167.372C92.9157 167.26 90.9405 167.173 88.9905 167.115C87.0539 162.626 84.6549 157.203 81.6855 150.713C79.9282 146.865 73.5153 132.398 70.6095 127.159C68.7751 132.66 68.9061 149.553 74.87 159.182Z" fill="#FF8E69"/>
<path d="M34.5448 76.918C34.5448 76.918 40.8458 79.1089 45.9907 83.2826C44.7691 81.6871 43.7671 80.2593 43.2526 78.8314C39.1405 67.4105 32.1612 62.1828 30.5252 63.9614C28.8893 65.7322 34.5448 76.918 34.5448 76.918Z" fill="#FF8E69"/>
<path d="M30.9817 79.6464C30.9817 79.6464 25.199 72.168 24.6845 65.6512C24.17 59.1343 16.2889 46.908 20.7286 45.3722C24.4745 44.0773 31.1012 66.7071 36.0669 72.7615C41.3004 79.1416 30.9817 79.6464 30.9817 79.6464Z" fill="#FF8E69"/>
<path d="M38.0083 78.2859C38.0083 78.2859 26.9882 69.1503 25.096 62.6104C23.2018 56.0704 15.155 46.3337 16.2783 44.0869C17.4017 41.8401 24.0843 48.3299 27.7493 56.1147C31.4144 63.9014 38.0083 78.2859 38.0083 78.2859Z" fill="#FFB890"/>
<path d="M39.6671 101.428C41.2664 102.118 42.7425 102.55 44.0913 102.781C45.6829 103.047 47.1879 102.91 48.5406 102.455C52.4118 101.151 55.017 97.2798 54.7588 93.1272C54.7568 93.1157 54.7588 93.1003 54.7568 93.0887C54.4967 91.4027 53.8358 89.5528 52.7239 87.5873C52.6719 87.4948 52.6199 87.4043 52.564 87.3079C52.3463 86.9476 52.1285 86.595 51.9089 86.25C47.1802 79.0356 37.3278 74.5189 37.3278 74.5189C37.3278 74.5189 27.7645 60.9784 23.7218 55.1225C19.6752 49.2704 12.5071 42.0464 11.9386 45.2566C11.3683 48.4669 20.2996 62.599 21.8295 72.6325C23.3557 82.6698 39.6671 101.428 39.6671 101.428Z" fill="#FFB890"/>
<path d="M180.249 118.127C166.422 119.863 157.644 110.437 155.315 95.8307C154.315 89.5663 155.585 78.7986 155.943 75.1067C157.465 59.4908 166.204 32.485 200.046 33.4639C200.046 33.4639 222.865 33.6662 234.151 48.8561C247.649 67.0232 243.595 78.5211 243.986 90.0461C244.169 95.4723 243.117 100.879 240.662 105.72C239.132 108.735 237.068 111.878 234.336 114.408C221.541 128.111 200.74 122.75 180.249 118.127Z" fill="#3B1034"/>
<path d="M167.127 204.128C166.258 204.376 165.377 204.604 164.497 204.82C163.967 204.949 163.433 205.074 162.897 205.186C158.98 206.045 155.286 206.833 151.563 207.483C151.001 207.581 150.434 207.677 149.867 207.77C142.406 208.98 134.691 209.612 124.756 209.174C124.465 204.295 124.723 194.896 124.999 190.763C125.041 190.028 125.101 189.304 125.172 188.597C126.247 176.182 129.078 168.208 129.078 168.208C150.293 168.121 162.352 157.452 162.352 157.452C163.231 170.595 167.127 204.128 167.127 204.128Z" fill="#00A580"/>
<path d="M151.561 207.483C150.999 207.581 150.432 207.677 149.866 207.77C151.448 199.829 151.076 193.863 151.07 193.788C151.043 193.345 151.373 192.961 151.816 192.929C152.259 192.908 152.637 193.237 152.675 193.674C152.696 193.998 153.047 199.704 151.561 207.483Z" fill="#008661"/>
<path d="M165.924 249.821C169.663 264.229 159.377 306.108 159.377 306.108C197.927 333.586 250.672 306.82 250.672 306.82C250.672 306.82 247.555 288.504 246.227 267.901C245.447 255.841 247.036 239.007 249.345 223.744C249.433 223.17 249.518 222.611 249.613 222.041C249.909 220.131 250.22 218.245 250.536 216.401C250.663 215.653 250.794 214.909 250.927 214.171C251.501 210.945 252.093 207.864 252.686 205.012C252.8 204.477 252.908 203.945 253.025 203.432C253.613 200.671 254.201 198.145 254.761 195.931C259.033 179.13 260.001 164.36 246.399 158.227C235.82 153.461 223.337 148.193 218.294 146.087C216.851 145.48 216.019 145.137 216.019 145.137C216.019 145.137 188.08 140.378 181.01 146.064C180.521 146.455 180.004 146.835 179.449 147.212C171.844 152.409 157.789 157.161 150.989 169.79C144.522 181.793 156.064 177.527 151.524 207.672C148.384 228.515 162.188 235.413 165.924 249.821Z" fill="#00A580"/>
<path d="M153.162 225C154.926 238.142 158.847 252.715 166.175 268.163C166.907 260.831 167.038 254.107 165.924 249.819C165.872 249.617 165.818 249.418 165.761 249.222V249.216C165.491 248.416 165.231 247.617 164.974 246.823C156.808 221.156 157.98 199.154 160.909 184.101C164.83 163.955 172.563 151.752 172.638 151.633C172.759 151.444 172.856 151.253 172.933 151.055C173.52 149.584 173 147.86 171.622 146.975C170.056 145.967 167.971 146.42 166.965 147.991C166.792 148.261 164.637 151.656 162.013 157.693C159.417 163.651 156.363 172.177 154.292 182.81C153.611 186.304 153.02 190.152 152.606 194.318V194.343C152.291 197.436 152.079 200.702 152.002 204.128C151.848 210.558 152.157 217.549 153.162 225Z" fill="#F6B74C"/>
<path d="M190.588 291.703C180.89 291.703 173.199 288.028 172.76 287.814C172.357 287.618 172.191 287.134 172.386 286.732C172.583 286.329 173.066 286.161 173.469 286.358C173.612 286.427 187.9 293.237 201.681 288.192C202.101 288.038 202.568 288.254 202.72 288.674C202.874 289.094 202.658 289.56 202.238 289.713C198.259 291.171 194.278 291.703 190.588 291.703Z" fill="#008661"/>
<path d="M178.448 283.548C207.24 283.548 231.941 261.221 232.205 260.978C232.531 260.679 232.552 260.173 232.253 259.847C231.954 259.521 231.448 259.498 231.122 259.797C230.845 260.051 202.995 285.205 172.347 281.592C171.91 281.54 171.511 281.854 171.459 282.294C171.407 282.733 171.721 283.13 172.16 283.182C174.272 283.431 176.372 283.548 178.448 283.548Z" fill="#008661"/>
<path d="M249.096 299.587C250.017 299.587 250.935 299.212 251.599 298.476C252.848 297.094 252.738 294.961 251.357 293.712C219.803 265.215 207.218 232.991 213.955 197.938C218.992 171.728 233.417 153.76 233.563 153.58C234.739 152.135 234.519 150.012 233.076 148.836C231.633 147.661 229.507 147.879 228.332 149.324C227.696 150.106 212.687 168.805 207.334 196.663C204.176 213.099 205.072 229.284 209.999 244.766C216.125 264.02 228.521 282.17 246.838 298.715C247.483 299.3 248.291 299.587 249.096 299.587Z" fill="#F6B74C"/>
<path d="M228.656 227.461C228.656 227.465 228.66 227.471 228.666 227.471C228.882 227.744 229.25 227.843 229.57 227.715C238.135 224.37 245.421 219.959 250.539 216.404C250.666 215.657 250.797 214.913 250.93 214.175C245.873 217.801 238.173 222.651 228.988 226.235C228.491 226.43 228.321 227.043 228.656 227.461Z" fill="#008661"/>
<path d="M184.022 195.474C174.943 195.474 168.147 191.9 164.194 184.978C163.973 184.589 164.108 184.094 164.497 183.872C164.884 183.65 165.379 183.785 165.603 184.174C176.085 202.536 204.402 189.027 204.687 188.89C205.088 188.693 205.573 188.861 205.77 189.263C205.966 189.666 205.799 190.152 205.396 190.346C205.093 190.493 197.889 193.969 189.196 195.118C187.398 195.356 185.672 195.474 184.022 195.474Z" fill="#008661"/>
<path d="M179.163 153.311C179.192 154.101 179.248 154.885 179.325 155.664C179.583 158.219 180.07 160.71 180.685 163.069C180.826 163.607 180.97 164.133 181.123 164.655C181.123 164.661 181.128 164.666 181.128 164.672C181.363 165.468 181.604 166.246 181.857 167.002C182.265 168.212 182.691 169.36 183.123 170.441C183.331 170.956 183.531 171.461 183.739 171.942C185.678 176.507 187.493 179.444 187.493 179.444C188.424 177.411 190.428 174.654 193.027 171.574C193.409 171.122 193.806 170.655 194.208 170.191C194.673 169.659 195.154 169.116 195.648 168.566C196.197 167.95 196.763 167.329 197.345 166.701C197.85 166.158 198.365 165.609 198.885 165.054C199.317 164.595 199.754 164.135 200.195 163.676C201.271 162.56 202.363 161.441 203.467 160.333C203.988 159.801 204.515 159.275 205.042 158.753C210.173 153.639 215.198 148.939 218.295 146.093C216.85 145.488 216.015 145.141 216.015 145.141C216.015 145.141 188.081 140.379 181.005 146.072C180.523 146.459 180.003 146.838 179.448 147.214C179.157 149.239 179.078 151.29 179.163 153.311Z" fill="#FFB890"/>
<path d="M179.163 153.311C179.192 154.101 179.248 154.885 179.325 155.664C180.03 156.286 180.764 156.88 181.52 157.435C183.194 158.672 184.965 159.749 186.763 160.672C187.512 161.063 188.275 161.421 189.031 161.759C192.447 163.293 195.875 164.341 198.883 165.052C199.315 164.593 199.752 164.133 200.193 163.674C197.673 163.102 194.794 162.302 191.863 161.165C190.973 160.818 190.077 160.443 189.185 160.028C185.61 158.387 182.086 156.201 179.163 153.311Z" fill="#00A580"/>
<path d="M181.128 164.67C181.364 165.466 181.604 166.244 181.857 167C183.279 167.817 184.736 168.53 186.192 169.156C186.971 169.497 187.749 169.811 188.522 170.096C190.058 170.678 191.574 171.16 193.025 171.569C193.407 171.116 193.804 170.649 194.207 170.185C193.278 169.938 192.318 169.659 191.345 169.339C190.443 169.048 189.524 168.722 188.601 168.364C186.092 167.399 183.537 166.189 181.128 164.67Z" fill="#00A580"/>
<path d="M183.123 170.441C183.331 170.956 183.531 171.461 183.739 171.942C185.296 171.197 186.899 170.592 188.524 170.1C189.464 169.809 190.406 169.563 191.347 169.345C192.798 169.014 194.237 168.757 195.65 168.566C196.199 167.95 196.765 167.329 197.347 166.701C194.545 166.986 191.566 167.503 188.603 168.37C187.795 168.605 186.996 168.869 186.194 169.16C185.433 169.439 184.676 169.742 183.932 170.073C183.66 170.189 183.39 170.312 183.123 170.441Z" fill="#00A580"/>
<path d="M180.686 163.069C180.826 163.606 180.971 164.133 181.123 164.655C183.655 163.344 186.349 162.414 189.033 161.759C189.985 161.523 190.931 161.327 191.868 161.165C196.13 160.398 200.225 160.252 203.468 160.331C203.988 159.799 204.516 159.273 205.042 158.751C200.97 158.548 195.143 158.639 189.189 160.028C188.382 160.219 187.571 160.431 186.763 160.672C185.227 161.125 183.699 161.68 182.204 162.34C181.695 162.57 181.191 162.811 180.686 163.069Z" fill="#00A580"/>
<path d="M180.548 145.48C180.548 145.48 179.976 152.794 190.292 155.184C202.634 158.051 215.578 149.037 215.578 149.037C214.258 141.225 214.745 132.113 215.832 125.445C216.377 122.071 216.903 119.877 216.903 119.877L216.898 119.881L182.978 130.147L181.675 138.396L181.03 142.462L180.548 145.48Z" fill="#FFB890"/>
<path d="M181.674 138.398C198.985 138.98 211.248 130.153 216.131 123.674C216.644 120.518 216.875 119.944 216.896 119.882L182.976 130.149L181.674 138.398Z" fill="#3B1034"/>
<path d="M171.038 84.61C171.038 84.61 169.754 77.7174 163.066 78.2473C156.379 78.7753 153.25 105.77 169.564 105.706L171.038 84.61Z" fill="#FF8E69"/>
<path d="M162.45 117.279C167.749 117.773 172.461 113.863 172.954 108.564C173.447 103.265 169.538 98.5536 164.239 98.0603C158.94 97.567 154.228 101.477 153.735 106.776C153.242 112.073 157.153 116.786 162.45 117.279ZM164.031 100.29C168.1 100.667 171.102 104.286 170.723 108.356C170.345 112.426 166.726 115.428 162.657 115.048C158.589 114.668 155.585 111.052 155.964 106.982C156.344 102.912 159.963 99.9121 164.031 100.29Z" fill="white"/>
<path d="M160.957 93.295C160.953 93.4357 160.952 93.5706 160.95 93.7113C160.934 94.9638 160.93 96.2394 160.959 97.5362C160.963 97.6075 160.961 97.6826 160.965 97.752C161 99.4265 161.067 101.124 161.179 102.831C161.279 104.296 161.35 105.782 161.582 107.25C164.326 124.683 175.224 132.797 190.279 132.24C217.967 131.219 229.787 105.107 234.256 90.1291C235.861 84.753 236.479 81.1207 236.479 81.1207C238.474 60.8745 217.505 42.854 198.594 42.8501C172.095 42.8443 166.102 58.1171 163.455 70.276C163.16 71.6036 162.909 72.8947 162.68 74.1241C161.986 77.8064 161.084 85.0054 160.957 93.295Z" fill="#FFB890"/>
<path d="M182.72 120.066C181.406 120.141 179.718 119.911 178.084 118.757C177.772 118.536 177.699 118.104 177.918 117.794C178.14 117.482 178.572 117.408 178.882 117.628C181.568 119.528 184.453 118.331 184.574 118.279C184.925 118.129 185.331 118.293 185.482 118.642C185.632 118.992 185.472 119.397 185.123 119.549C185.048 119.582 184.085 119.989 182.72 120.066Z" fill="#FF8E69"/>
<path d="M227.52 86.6782C230.268 83.3369 235.696 84.786 235.696 84.786C245.653 51.9242 217.689 34.1348 189.999 40.2721C162.309 46.4113 163.448 70.282 163.448 70.282C169.638 72.6714 177.952 71.2242 177.952 71.2242L181.176 61.7727L180.118 71.8216C185.357 74.3516 195.636 74.6503 195.636 74.6503C197.482 72.9469 199.083 64.8442 199.083 64.8442L199.299 74.9625C204.611 76.8913 218.809 80.5564 218.809 80.5564C218.996 76.5426 219.005 67.353 219.005 67.353C219.005 67.353 222.333 72.9142 220.749 78.4849C220.749 78.4849 217.314 94.3898 220.031 97.4401C222.744 100.49 227.52 86.6782 227.52 86.6782Z" fill="#3B1034"/>
<path d="M220.029 82.3C220.029 82.3 217.759 89.5818 215.158 97.1951C210.772 110.03 204.796 128.34 216.188 131.034C216.188 131.034 209.666 122.072 216.903 108.342C222.299 98.1085 227.844 88.1212 226.357 80.7527C224.871 73.3822 220.029 82.3 220.029 82.3Z" fill="#3B1034"/>
<path d="M194.345 80.5115C193.996 80.3554 193.711 80.0645 193.57 79.6772C193.302 78.9257 193.692 78.101 194.439 77.8312C197.386 76.7675 203.806 76.3436 207.024 82.3325C207.402 83.0377 207.138 83.9145 206.434 84.2922C205.731 84.6718 204.854 84.4058 204.475 83.7025C201.644 78.4285 195.671 80.4672 195.418 80.5559C195.054 80.683 194.672 80.658 194.345 80.5115Z" fill="#3B1034"/>
<path d="M165.974 80.6736C165.592 80.6852 165.207 80.5483 164.914 80.2612C164.345 79.7024 164.336 78.791 164.891 78.2206C167.078 75.9777 172.668 72.7925 178.177 76.7773C178.824 77.2456 178.969 78.1513 178.501 78.7968C178.034 79.4442 177.129 79.5887 176.481 79.1205C171.633 75.6116 167.147 80.0531 166.958 80.2438C166.687 80.5175 166.332 80.6601 165.974 80.6736Z" fill="#3B1034"/>
<path d="M168.555 69.7131C168.555 69.7131 167.95 73.7577 164.969 77.0875C163.43 78.8101 162.31 80.8642 161.842 83.1265L161.271 85.8839C161.271 85.8839 160.562 74.2896 163.445 70.2816L168.555 69.7131Z" fill="#3B1034"/>
<path d="M194.996 108.76C194.996 108.76 180.891 108.317 173.189 106.111C173.189 106.111 171.628 115.62 183.751 116.235C193.778 116.742 194.996 108.76 194.996 108.76Z" fill="white"/>
<path d="M199.882 96.7518C199.768 97.9542 202.93 99.2375 206.944 99.6171C210.958 99.9987 214.305 99.332 214.418 98.1296C214.532 96.9271 211.37 95.6438 207.356 95.2642C203.342 94.8846 199.995 95.5494 199.882 96.7518Z" fill="#FF8E69"/>
<path d="M160.955 93.2931C160.953 93.4338 160.949 93.5687 160.948 93.7093C160.932 94.9638 160.928 96.2375 160.959 97.5343C161.564 97.621 162.2 97.6904 162.861 97.7424C167.287 98.0738 170.991 97.3686 171.129 96.1623C171.266 94.9599 167.794 93.7151 163.37 93.3721C162.531 93.3105 161.72 93.2854 160.955 93.2931Z" fill="#FF8E69"/>
<path d="M195.819 89.289C195.615 91.4433 196.401 93.2797 197.576 93.3914C198.75 93.5032 199.867 91.8461 200.074 89.6937C200.278 87.5394 199.492 85.703 198.316 85.5913C197.141 85.4795 196.023 87.1347 195.819 89.289Z" fill="#3B1034"/>
<path d="M169.833 87.0247C169.628 89.179 170.415 91.0153 171.59 91.1271C172.763 91.2388 173.881 89.5836 174.085 87.4293C174.29 85.275 173.503 83.4386 172.328 83.3269C171.155 83.2151 170.037 84.8704 169.833 87.0247Z" fill="#3B1034"/>
<path d="M184.537 104.752C185.248 104.818 185.888 104.309 185.979 103.596C186.073 102.868 185.559 102.201 184.828 102.107C183.749 101.968 182.874 101.796 182.246 101.652C183.082 97.5727 185.079 92.1406 185.102 92.0809C185.356 91.3911 185.004 90.6261 184.316 90.3717C183.626 90.1155 182.861 90.47 182.606 91.1579C182.502 91.4373 180.076 98.0371 179.404 102.419C179.306 103.061 179.685 103.679 180.3 103.883C180.364 103.905 181.911 104.413 184.489 104.745C184.506 104.749 184.522 104.75 184.537 104.752Z" fill="#FF8E69"/>
<path d="M228.124 89.0075C228.124 89.0075 232.653 82.2421 239.545 85.8705C246.438 89.4989 237.406 119.736 220.027 112.192L228.124 89.0075Z" fill="#FFB890"/>
<path d="M222.43 113.011C222.129 113.697 221.936 114.445 221.863 115.231C221.484 119.303 224.484 122.918 228.555 123.297C232.621 123.675 236.242 120.677 236.622 116.605C236.864 113.988 235.7 111.559 233.758 110.061C232.793 109.314 231.631 108.795 230.355 108.603L230.563 106.371C232.386 106.62 234.026 107.373 235.363 108.477C237.753 110.437 239.159 113.511 238.853 116.813C238.36 122.112 233.648 126.022 228.349 125.529C223.05 125.036 219.14 120.324 219.634 115.025C219.722 114.066 219.948 113.152 220.299 112.302L222.43 113.011Z" fill="white"/>
<path d="M228.508 104.804C228.516 104.804 228.521 104.806 228.529 104.806C229.261 104.862 229.901 104.315 229.959 103.583C230.606 95.2449 237.383 92.158 237.451 92.1291C238.123 91.8323 238.428 91.0462 238.131 90.3737C237.834 89.7012 237.048 89.3967 236.377 89.6935C236.038 89.8438 228.076 93.4683 227.306 103.377C227.248 104.103 227.785 104.737 228.508 104.804Z" fill="#FF8E69"/>
<path d="M235.529 99.7194C236.068 99.7695 236.608 99.4842 236.855 98.9659C237.171 98.303 236.887 97.5072 236.224 97.1931C235.827 97.0043 232.265 95.3857 229.546 96.6651C228.881 96.9773 228.596 97.7712 228.908 98.436C229.22 99.1008 230.014 99.386 230.679 99.0738C232.033 98.436 234.371 99.2588 235.082 99.596C235.226 99.6654 235.377 99.7059 235.529 99.7194Z" fill="#FF8E69"/>
<path d="M164.875 49.4247C164.875 49.4247 215 47.4246 246.027 69.7152C246.027 69.7152 245.844 60.1095 242.285 49.6212V49.6155C241.605 47.6115 240.802 45.5786 239.852 43.5707C235.84 35.073 229.215 27.0859 218.293 24.2283C203.061 20.2395 190.844 23.3477 181.493 29.8684C179.633 31.1652 177.889 32.5949 176.257 34.1326C171.536 38.5761 167.756 43.9041 164.875 49.4247Z" fill="#F6B74C"/>
<path d="M176.257 34.1344C187.09 35.5122 214.067 38.865 242.283 49.6173C241.603 47.6133 240.799 45.5804 239.849 43.5725C228.777 36.6452 201.786 29.9048 181.492 29.8721C179.635 31.167 177.891 32.5968 176.257 34.1344Z" fill="#FF6129"/>
<path d="M140.848 380.208C141.237 378.832 141.624 377.455 142.014 376.073C142.821 373.204 143.624 370.319 144.42 367.435C150.822 344.254 156.691 321.26 159.379 306.11C159.379 306.11 196.048 327.433 250.671 306.817C250.671 306.817 251.966 312.837 254.172 322.624C254.454 323.853 254.744 325.142 255.051 326.485C256.064 330.96 257.232 336.047 258.521 341.585C259.344 345.092 260.211 348.778 261.121 352.601C262.344 357.742 263.649 363.141 265.013 368.677C265.013 368.683 265.013 368.687 265.013 368.687C265.144 369.203 265.269 369.726 265.404 370.248C265.41 370.263 265.41 370.279 265.41 370.298C266.214 373.56 267.038 376.871 267.878 380.208H140.848Z" fill="#FF6129"/>
<path d="M254.12 323.384C254.12 324.532 254.461 325.602 255.049 326.488C254.742 325.143 254.451 323.854 254.17 322.626C254.135 322.871 254.12 323.127 254.12 323.384Z" fill="#E8311B"/>
<path d="M230.145 323.381C230.145 326.505 232.677 329.037 235.801 329.037C238.925 329.037 241.457 326.505 241.457 323.381C241.457 320.258 238.925 317.726 235.801 317.726C232.677 317.724 230.145 320.258 230.145 323.381Z" fill="#E8311B"/>
<path d="M211.826 329.037C208.702 329.037 206.17 326.505 206.17 323.381C206.17 320.258 208.702 317.726 211.826 317.726C214.949 317.726 217.481 320.258 217.481 323.381C217.481 326.505 214.949 329.037 211.826 329.037Z" fill="#E8311B"/>
<path d="M187.85 329.037C184.727 329.037 182.195 326.505 182.195 323.381C182.195 320.258 184.727 317.726 187.85 317.726C190.974 317.726 193.506 320.258 193.506 323.381C193.506 326.505 190.974 329.037 187.85 329.037Z" fill="#E8311B"/>
<path d="M163.875 329.037C160.751 329.037 158.219 326.505 158.219 323.381C158.219 320.258 160.751 317.726 163.875 317.726C166.998 317.726 169.53 320.258 169.53 323.381C169.53 326.505 166.998 329.037 163.875 329.037Z" fill="#E8311B"/>
<path d="M254.121 347.104C254.121 350.229 256.654 352.761 259.774 352.761C260.237 352.761 260.688 352.706 261.119 352.601C260.212 348.778 259.343 345.092 258.522 341.585C256.003 342.159 254.121 344.41 254.121 347.104Z" fill="#E8311B"/>
<path d="M230.145 347.104C230.145 350.227 232.677 352.759 235.801 352.759C238.925 352.759 241.457 350.227 241.457 347.104C241.457 343.98 238.925 341.448 235.801 341.448C232.677 341.448 230.145 343.98 230.145 347.104Z" fill="#E8311B"/>
<path d="M211.826 352.759C208.702 352.759 206.17 350.227 206.17 347.104C206.17 343.98 208.702 341.448 211.826 341.448C214.949 341.448 217.481 343.98 217.481 347.104C217.481 350.227 214.949 352.759 211.826 352.759Z" fill="#E8311B"/>
<path d="M187.849 352.759C184.726 352.759 182.194 350.227 182.194 347.104C182.194 343.98 184.726 341.448 187.849 341.448C190.973 341.448 193.505 343.98 193.505 347.104C193.505 350.227 190.973 352.759 187.849 352.759Z" fill="#E8311B"/>
<path d="M163.875 352.759C160.751 352.759 158.219 350.227 158.219 347.104C158.219 343.98 160.751 341.448 163.875 341.448C166.998 341.448 169.53 343.98 169.53 347.104C169.53 350.227 166.998 352.759 163.875 352.759Z" fill="#E8311B"/>
<path d="M254.12 370.828C254.12 373.952 256.652 376.484 259.776 376.484C262.899 376.484 265.431 373.952 265.431 370.828C265.431 367.705 262.899 365.173 259.776 365.173C256.652 365.173 254.12 367.705 254.12 370.828Z" fill="#E8311B"/>
<path d="M230.145 370.828C230.145 373.952 232.677 376.484 235.801 376.484C238.925 376.484 241.457 373.952 241.457 370.828C241.457 367.705 238.925 365.173 235.801 365.173C232.677 365.173 230.145 367.705 230.145 370.828Z" fill="#E8311B"/>
<path d="M206.168 370.828C206.168 373.952 208.7 376.484 211.824 376.484C214.948 376.484 217.479 373.952 217.479 370.828C217.479 367.705 214.948 365.173 211.824 365.173C208.7 365.173 206.168 367.705 206.168 370.828Z" fill="#E8311B"/>
<path d="M182.195 370.828C182.195 373.952 184.727 376.484 187.85 376.484C190.974 376.484 193.506 373.952 193.506 370.828C193.506 367.705 190.974 365.173 187.85 365.173C184.727 365.173 182.195 367.705 182.195 370.828Z" fill="#E8311B"/>
<path d="M158.217 370.828C158.217 373.952 160.749 376.484 163.873 376.484C166.996 376.484 169.528 373.952 169.528 370.828C169.528 367.705 166.996 365.173 163.873 365.173C160.751 365.173 158.217 367.705 158.217 370.828Z" fill="#E8311B"/>
<path d="M142.012 376.073C144.089 375.241 145.554 373.204 145.554 370.826C145.554 369.553 145.132 368.379 144.421 367.435C143.623 370.32 142.821 373.204 142.012 376.073Z" fill="#E8311B"/>
<path d="M229.201 187.632C229.201 187.632 221.71 189.907 211.453 193.343C209.653 193.942 207.77 194.578 205.824 195.251C186.335 201.939 160.867 211.585 155.157 218.073C145.631 228.901 151.864 248.48 187.973 236.83C200.232 232.874 212.724 227.825 223.885 222.883C225.361 222.228 226.812 221.574 228.234 220.927C247.794 212.052 253.064 199.469 253.064 199.469L229.201 187.632Z" fill="#FFB890"/>
<path d="M159.279 238.896C159.279 238.896 113.698 216.171 90.7846 180.263C71.8024 150.513 80.1807 147.706 95.679 159.475C111.177 171.243 129.263 186.067 140.684 192.37C163.262 204.831 175.781 209.861 175.781 209.861L159.279 238.896Z" fill="#FFB890"/>
<path d="M78.024 143.27C78.024 143.27 74.4958 134.867 75.6327 128.67C76.7715 122.471 72.4668 109.127 76.9835 108.797C80.793 108.52 81.348 131.246 84.4696 138.119C87.7608 145.362 78.024 143.27 78.024 143.27Z" fill="#FF8E69"/>
<path d="M85.5356 143.655C85.5356 143.655 76.8048 132.968 76.2267 126.43C75.6486 119.892 69.8408 109.188 71.3207 107.271C72.8006 105.354 77.9185 112.732 79.9418 120.777C81.967 128.824 85.5356 143.655 85.5356 143.655Z" fill="#FFB890"/>
<path d="M85.5932 139.965C85.5932 139.965 82.7895 128.213 84.7203 126.916C86.6511 125.619 92.0233 132.078 93.3298 143.707C93.7306 147.28 96.9043 151.554 98.5325 157.783C100.458 165.148 93.6362 171.706 86.3697 169.438C86.3428 169.43 86.3177 169.42 86.2907 169.412C85.1037 169.035 84.1095 168.21 83.5063 167.119C80.72 162.077 70.9216 143.698 71.2781 135.31C71.6923 125.534 65.8653 110.506 67.0003 107.577C68.1333 104.648 73.573 112.807 76.315 119.095C79.0551 125.38 85.5932 139.965 85.5932 139.965Z" fill="#FFB890"/>
<path d="M211.45 193.343C209.651 193.942 207.768 194.578 205.822 195.25C207.294 204.7 219.073 219.075 223.883 222.885C225.359 222.229 226.81 221.576 228.232 220.929C218.387 210.4 212.951 197.301 211.45 193.343Z" fill="#3B1034"/>
<path d="M251.74 213.333C244.281 218.487 237.227 222.688 229.134 225.463C229.134 225.463 215.705 211.2 206.461 190.907L251.357 161.358C251.357 161.358 263.206 165.052 265.41 178.255C267.3 189.582 263.036 205.527 251.74 213.333Z" fill="#00A580"/>
<path d="M327.527 90.6263C329.974 108.452 330.642 132.868 329.823 158.531C329.812 158.913 329.664 159.277 329.409 159.56C328.401 160.674 326.555 159.919 326.611 158.417C328.951 96.9562 322.07 57.8127 306.338 42.8135C305.75 42.2528 305.619 41.3317 306.117 40.6901C306.687 39.9559 307.747 39.8904 308.404 40.5128C317.746 49.3689 324.178 66.2295 327.527 90.6263Z" fill="#00A580"/>
<path d="M322.728 69.1253C322.728 69.1253 335.637 68.7206 334.038 46.0542C334.038 46.0542 314.456 52.2782 322.728 69.1253Z" fill="#00CCA1"/>
<path d="M324.158 80.7699C324.158 80.7699 324.472 67.8595 301.752 68.1929C301.752 68.1929 306.875 88.0922 324.158 80.7699Z" fill="#00CCA1"/>
<path d="M313.338 49.2301C313.338 49.2301 317.939 37.1637 296.406 29.9031C296.406 29.9031 294.602 50.3709 313.338 49.2301Z" fill="#00CCA1"/>
<path d="M327.754 104.105C327.754 104.105 340.038 108.09 346.2 86.2193C346.2 86.2193 325.667 85.4524 327.754 104.105Z" fill="#00CCA1"/>
<path d="M327.413 116.187C327.413 116.187 329.954 103.525 307.519 99.9253C307.519 99.9253 309.124 120.41 327.413 116.187Z" fill="#00CCA1"/>
<path d="M328.59 132.776C328.59 132.776 340.797 136.994 347.374 115.243C347.374 115.243 326.858 114.087 328.59 132.776Z" fill="#00CCA1"/>
<path d="M80.6333 300.765C89.3603 316.5 103.46 336.444 119.499 356.496C119.738 356.792 120.074 356.997 120.447 357.07C121.921 357.359 122.947 355.646 122 354.478C83.2866 306.684 65.3296 271.229 68.9291 249.794C69.064 248.994 68.6169 248.177 67.8327 247.961C66.9367 247.717 66.0483 248.299 65.8961 249.191C63.7322 261.878 68.6902 279.23 80.6333 300.765Z" fill="#00A580"/>
<path d="M71.5864 280.681C71.5864 280.681 61.0115 288.094 48.7042 268.994C48.7042 268.994 68.1083 262.235 71.5864 280.681Z" fill="#00CCA1"/>
<path d="M77.4214 290.857C77.4214 290.857 69.4305 280.712 87.8172 267.36C87.8172 267.36 95.6443 286.358 77.4214 290.857Z" fill="#00CCA1"/>
<path d="M67.176 259.126C67.176 259.126 56.26 252.226 69.1434 233.508C69.1434 233.508 82.8573 248.81 67.176 259.126Z" fill="#00CCA1"/>
<path d="M88.5317 311.691C88.5317 311.691 81.088 322.245 63.0443 308.432C63.0443 308.432 79.0204 295.508 88.5317 311.691Z" fill="#00CCA1"/>
<path d="M96.0475 321.156C96.0475 321.156 86.4225 312.545 102.223 296.216C102.223 296.216 113.216 313.575 96.0475 321.156Z" fill="#00CCA1"/>
<path d="M105.048 335.141C105.048 335.141 97.8065 345.834 79.5045 332.367C79.5045 332.367 95.2321 319.142 105.048 335.141Z" fill="#00CCA1"/>
<path d="M351.787 233.743C351.787 233.743 359.298 196.992 346.428 196.651C333.558 196.31 351.787 233.743 351.787 233.743Z" fill="#00CCA1"/>
<path d="M354.535 249.043C354.938 248.877 355.188 248.451 355.119 248.002L349.806 214.129C349.723 213.603 349.23 213.244 348.706 213.325C348.18 213.406 347.822 213.901 347.903 214.425L353.215 248.299C353.298 248.825 353.791 249.183 354.315 249.102C354.392 249.093 354.466 249.071 354.535 249.043Z" fill="#00A580"/>
<path d="M350.796 232.082C350.796 232.082 333.055 199.035 322.947 207.007C312.838 214.979 350.796 232.082 350.796 232.082Z" fill="#00CCA1"/>
<path d="M351.885 233.448C352.018 233.394 352.139 233.308 352.239 233.194C352.59 232.795 352.552 232.186 352.151 231.833L336.722 218.276C336.321 217.925 335.714 217.963 335.362 218.364C335.011 218.763 335.049 219.372 335.45 219.725L350.879 233.283C351.166 233.533 351.557 233.585 351.885 233.448Z" fill="#00A580"/>
<path d="M27.6396 158.196C27.6396 158.196 -6.34363 142.32 1.05384 131.784C8.4513 121.247 27.6396 158.196 27.6396 158.196Z" fill="#00CCA1"/>
<path d="M38.2859 169.523C37.912 169.746 37.4226 169.694 37.1027 169.37L13.072 144.914C12.6982 144.534 12.704 143.923 13.0836 143.551C13.4632 143.178 14.0721 143.183 14.446 143.563L38.4766 168.02C38.8504 168.399 38.8447 169.008 38.4651 169.382C38.4111 169.438 38.3494 169.484 38.2859 169.523Z" fill="#00A580"/>
<path d="M26.8955 156.41C26.8955 156.41 10.9386 122.465 23.3634 119.101C35.7902 115.738 26.8955 156.41 26.8955 156.41Z" fill="#00CCA1"/>
<path d="M27.3425 158.099C27.2192 158.172 27.0785 158.221 26.9263 158.232C26.3964 158.277 25.9301 157.882 25.8877 157.352L24.1997 136.882C24.1554 136.352 24.5504 135.888 25.0803 135.843C25.6102 135.799 26.0765 136.194 26.1189 136.724L27.8069 157.194C27.8397 157.573 27.6489 157.918 27.3425 158.099Z" fill="#00A580"/>
<path d="M118.587 101.565C119.138 101.565 119.666 101.249 119.909 100.714C120.241 99.9833 119.919 99.1239 119.188 98.7925C79.8676 80.9202 59.3112 57.6025 48.9906 41.1871C37.8125 23.4092 35.8952 9.67026 35.8759 9.53345C35.7699 8.73955 35.0435 8.18265 34.2476 8.28478C33.4538 8.38883 32.893 9.1172 32.9971 9.91109C33.0722 10.4892 34.976 24.2917 46.4354 42.5783C56.9622 59.3772 77.9214 83.2249 117.986 101.436C118.183 101.523 118.387 101.565 118.587 101.565Z" fill="#00A580"/>
<path d="M93.4855 85.4601C93.4855 85.4601 104.55 96.7442 123.628 76.5154C123.628 76.5154 101.793 64.0462 93.4855 85.4601Z" fill="#00CCA1"/>
<path d="M81.5446 78.2263C81.5446 78.2263 67.979 86.3329 83.1632 109.628C83.1632 109.628 100.409 91.3294 81.5446 78.2263Z" fill="#00CCA1"/>
<path d="M51.4227 48.2339C51.4227 48.2339 66.1213 54.0378 54.9085 79.4829C54.9085 79.4829 34.9282 64.2177 51.4227 48.2339Z" fill="#00CCA1"/>
<path d="M45.3225 37.5469C45.3225 37.5469 50.9029 22.7616 76.5137 33.589C76.5137 33.589 61.5549 53.7986 45.3225 37.5469Z" fill="#00CCA1"/>
<path d="M63.4373 60.992C63.4373 60.992 69.0235 75.7753 94.6304 64.9364C94.6304 64.9364 79.662 44.7326 63.4373 60.992Z" fill="#00CCA1"/>
<path d="M349.084 292.254C347.285 293.429 344.872 292.922 343.699 291.119C342.525 289.315 343.032 286.901 344.832 285.723C346.631 284.548 349.044 285.055 350.217 286.858C351.393 288.664 350.886 291.078 349.084 292.254Z" fill="#FF6129"/>
<path d="M102.088 35.6202C100.885 37.4026 98.4652 37.8709 96.6847 36.6646C94.9023 35.4583 94.4321 33.0362 95.6345 31.2538C96.8369 29.4714 99.2572 29.0031 101.038 30.2094C102.82 31.4156 103.29 33.8378 102.088 35.6202Z" fill="#FF6129"/>
<path d="M56.9014 336.463C55.1016 337.639 52.6891 337.132 51.5156 335.328C50.3421 333.525 50.8489 331.11 52.6486 329.935C54.4484 328.76 56.8609 329.266 58.0344 331.07C59.2098 332.874 58.703 335.288 56.9014 336.463Z" fill="#FF6129"/>
<path d="M270.002 40.0132C268.202 41.1886 265.79 40.6819 264.616 38.8783C263.443 37.0747 263.949 34.6602 265.749 33.4828C267.549 32.3074 269.961 32.8162 271.135 34.6178C272.308 36.4214 271.802 38.8359 270.002 40.0132Z" fill="#FF6129"/>
<path d="M40.1333 233.631C38.3335 234.807 35.921 234.3 34.7475 232.496C33.574 230.693 34.0808 228.278 35.8806 227.103C37.6803 225.927 40.0928 226.434 41.2663 228.238C42.4417 230.039 41.933 232.454 40.1333 233.631Z" fill="#FF6129"/>
<path d="M370.345 118.345C368.545 119.52 366.132 119.014 364.959 117.21C363.785 115.406 364.292 112.992 366.092 111.815C367.892 110.639 370.304 111.146 371.478 112.95C372.653 114.753 372.146 117.168 370.345 118.345Z" fill="#FF6129"/>
<path d="M363.488 166.844C361.689 168.019 359.276 167.512 358.103 165.709C356.929 163.905 357.436 161.491 359.236 160.313C361.035 159.138 363.448 159.645 364.621 161.448C365.797 163.252 365.288 165.666 363.488 166.844Z" fill="#008661"/>
<path d="M163.006 6.08045C161.803 7.86285 159.383 8.33108 157.603 7.12483C155.82 5.91857 155.35 3.4964 156.553 1.71399C157.755 -0.0684118 160.175 -0.53664 161.956 0.669616C163.74 1.87394 164.208 4.29804 163.006 6.08045Z" fill="#008661"/>
<path d="M20.7539 194.794C18.9541 195.969 16.5416 195.463 15.3681 193.659C14.1946 191.855 14.7014 189.441 16.5012 188.266C18.3009 187.09 20.7134 187.597 21.8869 189.401C23.0624 191.204 22.5536 193.619 20.7539 194.794Z" fill="#008661"/>
<path d="M315.08 350.37C313.281 351.545 310.868 351.039 309.695 349.235C308.521 347.431 309.028 345.017 310.828 343.842C312.627 342.666 315.04 343.173 316.213 344.977C317.387 346.78 316.88 349.195 315.08 350.37Z" fill="#008661"/>
</svg>
